<?xml version="1.0" encoding="UTF-8" standalone="no"?>
<!-- Created with Inkscape (http://www.inkscape.org/) -->

<svg
   xmlns:dc="http://purl.org/dc/elements/1.1/"
   xmlns:cc="http://creativecommons.org/ns#"
   xmlns:rdf="http://www.w3.org/1999/02/22-rdf-syntax-ns#"
   xmlns:svg="http://www.w3.org/2000/svg"
   xmlns="http://www.w3.org/2000/svg"
   xmlns:sodipodi="http://sodipodi.sourceforge.net/DTD/sodipodi-0.dtd"
   xmlns:inkscape="http://www.inkscape.org/namespaces/inkscape"
   width="210mm"
   height="297mm"
   viewBox="0 0 210 297"
   version="1.1"
   id="svg8"
   inkscape:version="0.92.1 r15371"
   sodipodi:docname="housing.svg">
  <sodipodi:namedview
     id="base"
     pagecolor="#ffffff"
     bordercolor="#666666"
     borderopacity="1.0"
     inkscape:pageopacity="0.0"
     inkscape:pageshadow="2"
     inkscape:zoom="0.0875"
     inkscape:cx="3975.0471"
     inkscape:cy="754.63686"
     inkscape:document-units="mm"
     inkscape:current-layer="layer1"
     showgrid="false"
     showborder="false"
     inkscape:measure-start="4155.26,5241.18"
     inkscape:measure-end="4155.26,5218.45"
     inkscape:snap-nodes="false"
     inkscape:snap-others="false"
     inkscape:window-width="1440"
     inkscape:window-height="801"
     inkscape:window-x="0"
     inkscape:window-y="28"
     inkscape:window-maximized="1" />
  <defs
     id="defs2" />
  <metadata
     id="metadata5">
    <rdf:RDF>
      <cc:Work
         rdf:about="">
        <dc:format>image/svg+xml</dc:format>
        <dc:type
           rdf:resource="http://purl.org/dc/dcmitype/StillImage" />
        <dc:title />
      </cc:Work>
    </rdf:RDF>
  </metadata>
  <g
     id="layer1"
     inkscape:groupmode="layer"
     inkscape:label="Layer 1">
    <text
       id="text4829"
       y="-131.70032"
       x="864.88422"
       style="font-style:normal;font-variant:normal;font-weight:normal;font-stretch:normal;font-size:5.64444447px;line-height:125%;font-family:Carlito;-inkscape-font-specification:Carlito;letter-spacing:0px;word-spacing:0px;fill:#000000;fill-opacity:1;stroke:none;stroke-width:0.26458332px;stroke-linecap:butt;stroke-linejoin:miter;stroke-opacity:1"
       xml:space="preserve"><tspan
         style="font-size:25.39999962px;stroke-width:0.26458332px"
         y="-131.70032"
         x="864.88422"
         id="tspan4827"
         sodipodi:role="line">Perspex Shapes</tspan></text>
    <rect
       transform="rotate(-90)"
       y="718.67639"
       x="467.56915"
       height="419.83307"
       width="296.83307"
       id="rect4831"
       style="color:#000000;display:inline;overflow:visible;visibility:visible;opacity:1;vector-effect:none;fill:#ff0000;fill-opacity:1;fill-rule:nonzero;stroke:#999999;stroke-width:0.16693261;stroke-linecap:butt;stroke-linejoin:miter;stroke-miterlimit:4;stroke-dasharray:none;stroke-dashoffset:0;stroke-opacity:1;marker:none;paint-order:markers fill stroke;enable-background:accumulate" />
    <text
       id="text4829-7"
       y="-442.3266"
       x="807.37231"
       style="font-style:normal;font-variant:normal;font-weight:normal;font-stretch:normal;font-size:5.64444447px;line-height:125%;font-family:Carlito;-inkscape-font-specification:Carlito;letter-spacing:0px;word-spacing:0px;fill:#000000;fill-opacity:1;stroke:none;stroke-width:0.26458332px;stroke-linecap:butt;stroke-linejoin:miter;stroke-opacity:1"
       xml:space="preserve"><tspan
         style="font-size:25.39999962px;stroke-width:0.26458332px"
         y="-442.3266"
         x="807.37231"
         id="tspan4827-0"
         sodipodi:role="line">Fit onto A3 arcylic sheet</tspan><tspan
         id="tspan4874"
         style="font-size:25.39999962px;stroke-width:0.26458332px"
         y="-435.27106"
         x="807.37231"
         sodipodi:role="line" /><tspan
         id="tspan4876"
         style="font-size:25.39999962px;stroke-width:0.26458332px"
         y="-423.27661"
         x="807.37231"
         sodipodi:role="line">5mm thickness opal translucent</tspan></text>
    <path
       sodipodi:nodetypes="ccccccccccccccssascccccccssccssccccccccccccccccsaccasccccccccccccccccccccscccc"
       inkscape:connector-curvature="0"
       d="m 1156.4373,-952.63509 c 3.8286,15.7145 3.6722,32.2541 6.212,48.2367 12.649,7.1489 25.7344,13.5774 38.5525,20.4472 2.7012,1.9949 9.7868,3.3192 7.2796,7.8226 -14.9519,8.552 -32.0874,13.5601 -47.7327,21.0491 -3.333,10.6689 -4.7784,21.6757 -7.1662,32.5479 -2.4542,5.9565 -0.2231,14.7949 -7.6569,18.0282 -12.3779,-12.0404 -23.6355,-25.0485 -36.0224,-37.0808 -14.0299,0.7498 -27.8927,3.1843 -41.8649,4.3787 -4.1945,0.7199 -11.6216,2.4822 -12.3653,-3.5173 7.4844,-14.4922 16.965,-27.948 25.1881,-42.0596 -4.7779,-10.6631 -12.3005,-24.3039 -17.3998,-34.831 v 0 c -0.2017,-0.3553 -0.9275,1.1369 -1.0869,1.7903 -1.1867,4.8621 9.2562,32.0733 8.4207,39.1535 -0.1183,1.0029 -13.3877,1.4889 -13.8332,1.7925 -0.4551,0.3102 -0.9455,0.1811 -1.6743,0.183 -12.6868,0.033 -25.7666,-1.7027 -38.5719,-2.3115 -94.68842,-4.9207 -190.53684,-5.5345 -284.16333,10.1418 -6.22289,-0.2042 -12.64154,4.5863 -18.64573,1.5939 -6.34241,-11.2053 -8.93585,-24.4045 -13.416,-36.4805 -0.65291,-5.3951 -6.54564,-11.2883 -2.61547,-16.5952 27.7725,-8.0431 57.02533,-9.977 85.92552,-10.3441 6.07783,-0.029 12.15632,0.034 18.23159,0.2054 82.84349,2.9087 164.45655,20.0016 243.46652,42.9153 0.2166,0.063 0.4482,0.1716 0.626,0.1436 0.16,-0.026 0.4325,-0.2942 0.4325,-0.2942 l 5.9351,-4.9273 c 0,0 0.2665,-0.1852 0.2706,-0.5877 0,-0.4086 -0.567,-0.418 -1.2431,-0.5251 -6.7436,-1.068 -13.3222,-4.9469 -19.8885,-7.0851 -98.6306,-36.0714 -215.66323,-53.9529 -329.57952,-43.4361 -7.66346,-0.076 -15.1764,4.8205 -22.7572,2.1242 -5.22427,-14.1971 -9.8849,-28.5677 -14.63612,-42.9094 -0.53196,-4.9113 -6.05408,-10.794 -1.4935,-15.2539 17.48569,-3.65601 36.06453,-3.03761 54.03778,-3.04711 117.73964,3.57131 231.19788,43.45311 331.60846,99.72501 1.0028,0.4735 0.9726,-0.5571 0.8182,-0.7367 l -7.6352,-13.9255 c -12.0674,-9.8293 -24.7413,-19.8121 -38.4779,-27.9168 -71.89181,-42.8442 -156.54045,-61.94421 -240.44049,-69.61841 -22.66951,-2.6328 -45.59562,-2.1456 -68.3025,-4.4185 -1.16559,-15.2794 -0.99955,-30.6077 -1.46716,-45.9119 0.46238,-3.8787 -2.22396,-10.8586 3.91837,-11.9192 1.897,-0.081 3.8261,0.1632 5.73007,0.1975 76.0438,5.0048 153.49085,15.418 222.97913,46.5299 50.21925,21.8152 92.95468,58.66321 119.66748,104.30621 0.1273,0.2174 0.179,0.4468 0.3807,0.5627 0.205,0.1177 0.7176,0.062 0.7176,0.062 l 12.8121,-0.5021 c 0,0 0.505,-0.035 0.6606,-0.1959 0.1431,-0.1477 0.1807,-0.3404 0.135,-0.5862 -0.3729,-2.0083 0.1706,-3.855 2.6159,-5.2968 16.7896,1.6766 33.5366,6.6794 50.3157,9.4111 6.602,-4.8351 12.471,-10.4672 18.6026,-15.8042 7.3282,-5.267 12.7882,-13.1898 21.2483,-16.8021 l 2.661,-5.9383 -103.1552,17.9626 -19.5187,-28.2109 -88.76636,-60.10001 -62.30512,-25.5279 c -65.33908,-23.5108 -190.39509,-25.673 -190.39509,-25.673 l -34.61568,81.69921 c 0,0 3.63865,20.4676 5.95775,30.593 14.5508,41.7868 21.77219,72.9644 40.20088,111.8521 l 327.48582,-1.1399 19.8406,21.8065 c 4.4898,8.0264 15.6467,6.8297 23.4766,4.868 11.1719,-1.2271 22.2992,-2.8448 33.517,-3.6751 12.618,12.3997 24.0536,25.9076 37.0811,37.8955 10.7495,-2.1422 14.4267,-14.0385 14.8664,-23.1256 2.1968,-10.0494 3.7189,-20.2347 6.4461,-30.1783 15.9952,-8.5215 36.1525,-10.9711 48.7985,-24.3361 0.5714,-2.9556 -0.2189,-5.436 -1.7874,-7.5379 -3.1283,-4.1919 -9.3522,-6.8787 -14.0445,-8.8303 l -27.9461,-17.9619 -9.6319,-51.8532 z"
       style="fill:#ff0000;fill-opacity:1;fill-rule:evenodd;stroke:#000000;stroke-width:0.36098519;stroke-opacity:1"
       id="path4558-7-9-1-9-7-5" />
    <rect
       y="-1086.7661"
       x="652.64819"
       height="294.05594"
       width="566.54248"
       id="rect4550-9-0"
       style="color:#000000;display:inline;overflow:visible;visibility:visible;opacity:1;vector-effect:none;fill:none;fill-opacity:1;fill-rule:nonzero;stroke:#ff0000;stroke-width:5.86100435;stroke-linecap:butt;stroke-linejoin:miter;stroke-miterlimit:4;stroke-dasharray:none;stroke-dashoffset:0;stroke-opacity:1;marker:none;paint-order:markers fill stroke;enable-background:accumulate" />
    <path
       d="m 1042.8164,-919.90959 c -10.2096,-10.0053 -31.9732,-24.8717 -52.64691,-35.962 -11.36971,-6.0991 -24.8108,-12.3935 -38.32235,-17.9462 -66.55018,-27.34901 -147.81633,-42.93311 -239.42224,-45.91321 -6.95757,-0.2264 -12.75225,-0.5113 -12.87704,-0.633 -0.23985,-0.234 -1.43283,-50.5501 -1.20454,-50.8035 0.37276,-0.4135 31.87642,1.9411 48.86938,3.6523 82.39874,8.2986 148.5796,25.832 197.76921,52.3953 42.04026,22.70241 73.38989,52.26541 97.08179,91.54921 2.7885,4.6237 3.0544,5.9167 0.7527,3.6611 z m 9.1628,25.69 c -0.4993,-0.1696 -4.0041,-1.5769 -7.7885,-3.1272 -33.9368,-13.9028 -80.31147,-27.1549 -126.2358,-36.0735 -33.062,-6.4207 -62.55446,-10.5175 -96.92738,-13.4637 -11.33893,-0.972 -55.8898,-2.4329 -65.17837,-2.1369 -28.84683,0.9179 -50.35525,3.0191 -68.40836,6.6832 -2.01615,0.4092 -3.79749,0.611 -3.95853,0.4484 -0.16106,-0.1625 -4.1955,-11.9196 -8.96543,-26.1268 -6.70514,-19.9713 -8.56066,-25.8914 -8.17906,-26.0965 0.27146,-0.1458 1.75633,-0.4019 3.29972,-0.5689 29.7322,-3.2173 65.21703,-2.4116 103.07615,2.34 81.6092,10.2427 167.60134,38.3012 250.82516,81.8425 12.4866,6.5329 28.6465,15.4716 29.2088,16.1566 0.2258,0.2751 0.3495,0.4847 0.2749,0.4659 -0.075,-0.019 -0.5441,-0.1729 -1.0434,-0.3426 z m -342.8599,3.9433 c -4.3455,-12.8881 -7.84469,-23.5885 -7.77599,-23.7788 0.14101,-0.3904 12.51893,-3.2199 19.76662,-4.5184 38.19762,-6.8435 87.59948,-7.0088 142.92815,-0.4782 45.74219,5.3992 97.18988,15.4419 148.99072,29.0837 19.7213,5.1936 43.7235,12.1999 43.7235,12.7631 0,0.4111 1.3518,0.4752 -11.1528,-0.5281 -77.25581,-6.1976 -168.63131,-6.6634 -235.94024,-1.2024 -32.03706,2.5991 -60.97218,6.3333 -85.5754,11.0434 -3.01226,0.5767 -5.83387,1.0485 -6.27025,1.0485 -0.72738,0 -1.45097,-1.9503 -8.69431,-23.4328 z m 420.9423,63.857 c -16.5252,-17.3766 -17.3153,-18.15 -18.5388,-18.15 -0.7029,0 -12.0704,1.245 -25.2611,2.7668 -13.1906,1.5218 -24.3363,2.767 -24.7682,2.767 -0.5682,0 -0.7379,-0.1673 -0.614,-0.6052 0.094,-0.333 5.7882,-9.7104 12.6533,-20.8388 6.8651,-11.1285 12.5927,-20.5147 12.7279,-20.8583 0.1669,-0.4241 -3.2454,-7.6659 -10.6246,-22.5479 -5.9787,-12.0577 -10.7581,-22.0942 -10.6208,-22.3033 0.1373,-0.2092 0.525,-0.2998 0.8616,-0.2016 0.3367,0.098 2.9269,0.6381 5.7561,1.1997 6.4082,1.2721 25.049,5.0396 35.2085,7.1162 4.2085,0.8602 8.0518,1.564 8.5408,1.564 0.6654,0 5.5716,-4.1123 19.4983,-16.3426 10.235,-8.9883 18.8242,-16.391 19.0869,-16.4504 0.6453,-0.1459 0.543,-0.918 3.2899,24.8379 1.3288,12.4601 2.555,22.9659 2.7248,23.3464 0.1975,0.4424 8.4627,4.93 22.9321,12.4513 12.4428,6.4678 22.6281,11.8485 22.6341,11.9571 0.01,0.1086 -5.9001,2.66 -13.1246,5.6699 -7.2245,3.0098 -17.7649,7.4025 -23.4233,9.7616 -5.6583,2.3592 -10.5533,4.5549 -10.8777,4.8793 -0.3977,0.398 -1.695,5.9932 -3.9857,17.1918 -5.2971,25.8945 -6.3771,30.9561 -6.6038,30.9474 -0.116,-0.01 -7.9782,-8.1757 -17.4717,-18.1583 z"
       style="fill:#f0cb8e;stroke-width:0.36098519"
       id="path4558-7-9-6-6"
       inkscape:connector-curvature="0" />
    <path
       d="m 1024.9995,-275.01724 c -10.2095,-10.0053 -31.97324,-24.8717 -52.64694,-35.962 -11.3697,-6.0991 -24.8108,-12.39352 -38.3223,-17.94622 -66.5502,-27.349 -147.81636,-42.9331 -239.42227,-45.9132 -6.95757,-0.2264 -12.75225,-0.5113 -12.87704,-0.633 -0.23985,-0.234 -1.43283,-50.5501 -1.20454,-50.8035 0.37276,-0.4135 31.87642,1.9411 48.86938,3.6523 82.39874,8.2986 148.57957,25.832 197.76917,52.3953 42.0403,22.7024 73.38994,52.26542 97.08184,91.54922 2.7885,4.6237 3.0544,5.9167 0.7527,3.6611 z m 9.1628,25.69 c -0.4992,-0.1696 -4.004,-1.5769 -7.7884,-3.1272 -33.93694,-13.9028 -80.31154,-27.1549 -126.23594,-36.0735 -33.062,-6.4207 -62.5544,-10.5175 -96.92735,-13.4637 -11.33893,-0.972 -55.8898,-2.4329 -65.17837,-2.1369 -28.84683,0.9179 -50.35525,3.0191 -68.40836,6.6832 -2.01615,0.4092 -3.79749,0.611 -3.95853,0.4484 -0.16106,-0.1625 -4.1955,-11.9196 -8.96543,-26.12682 -6.70514,-19.9713 -8.56066,-25.8914 -8.17906,-26.0965 0.27146,-0.1458 1.75633,-0.4019 3.29972,-0.5689 29.7322,-3.2173 65.21703,-2.4116 103.07615,2.34 81.60923,10.2427 167.60133,38.30122 250.82527,81.84252 12.4866,6.5329 28.6465,15.4716 29.2087,16.1566 0.2258,0.2751 0.3495,0.4847 0.2749,0.4659 -0.075,-0.019 -0.5441,-0.1729 -1.0433,-0.3426 z m -342.85991,3.9433 c -4.3455,-12.8881 -7.84469,-23.5885 -7.77599,-23.7788 0.14101,-0.3904 12.51893,-3.2199 19.76662,-4.5184 38.19762,-6.8435 87.59948,-7.0088 142.92814,-0.4782 45.7422,5.3992 97.1899,15.4419 148.9907,29.0837 19.72134,5.1936 43.72354,12.1999 43.72354,12.7631 0,0.4111 1.3518,0.4752 -11.1528,-0.5281 -77.25584,-6.1976 -168.63134,-6.6634 -235.94025,-1.2024 -32.03706,2.5991 -60.97218,6.3333 -85.5754,11.0434 -3.01226,0.5767 -5.83387,1.0485 -6.27025,1.0485 -0.72738,0 -1.45097,-1.9503 -8.69431,-23.4328 z m 420.94241,63.857 c -16.5253,-17.3766 -17.3154,-18.15 -18.5389,-18.15 -0.7029,0 -12.0704,1.245 -25.2611,2.7668 -13.1906,1.5218 -24.3363,2.767 -24.7682,2.767 -0.5681,0 -0.7379,-0.1673 -0.614,-0.6052 0.094,-0.333 5.7882,-9.7104 12.6533,-20.8388 6.8651,-11.1285 12.5927,-20.5147 12.7279,-20.8583 0.1669,-0.4241 -3.2454,-7.6659 -10.6246,-22.5479 -5.9787,-12.0577 -10.7581,-22.0942 -10.6208,-22.3033 0.1373,-0.2092 0.525,-0.2998 0.8617,-0.2016 0.3366,0.098 2.9268,0.6381 5.756,1.1997 6.4082,1.2721 25.049,5.0396 35.2085,7.1162 4.2085,0.8602 8.0519,1.564 8.5409,1.564 0.6653,0 5.5715,-4.1123 19.4982,-16.3426 10.235,-8.9883 18.8242,-16.391 19.087,-16.4504 0.6452,-0.1459 0.5429,-0.918 3.2898,24.8379 1.3288,12.4601 2.5551,22.9659 2.7248,23.3464 0.1975,0.4424 8.4627,4.93 22.9322,12.4513 12.4427,6.4678 22.6281,11.8485 22.634,11.9571 0.01,0.1086 -5.9001,2.66 -13.1246,5.6699 -7.2244,3.0098 -17.7649,7.4025 -23.4232,9.7616 -5.6584,2.3592 -10.5534,4.5549 -10.8778,4.8793 -0.3977,0.398 -1.6949,5.9932 -3.9857,17.1918 -5.2971,25.8945 -6.3771,30.9561 -6.6038,30.9474 -0.116,-0.01 -7.9782,-8.1757 -17.4716,-18.1583 z"
       style="fill:#f0cb8e;stroke-width:0.36098522"
       id="path4558-7-9-6-6-1"
       inkscape:connector-curvature="0" />
    <path
       inkscape:connector-curvature="0"
       id="path5270"
       d="m 1092.6589,-510.18332 c -10.2095,-10.0053 -31.9733,-24.8717 -52.647,-35.962 -11.3697,-6.09906 -24.8108,-12.39356 -38.3223,-17.94626 -66.5502,-27.349 -147.8163,-42.9331 -239.42224,-45.9132 -6.95757,-0.2264 -12.75225,-0.5113 -12.87704,-0.633 -0.23985,-0.234 -1.43283,-50.5501 -1.20454,-50.8035 0.37276,-0.4135 31.87642,1.9411 48.86938,3.6523 82.39874,8.2986 148.57954,25.832 197.76914,52.3953 42.0403,22.7024 73.39,52.2655 97.0819,91.54926 2.7885,4.6237 3.0544,5.9167 0.7527,3.6611 z"
       style="fill:#f0cb8e;stroke-width:0.36098525" />
    <path
       inkscape:connector-curvature="0"
       id="path5268"
       d="m 1110.8931,-486.00522 c -0.4992,-0.1696 -4.004,-1.5769 -7.7884,-3.1272 -33.937,-13.9028 -80.3116,-27.1549 -126.23597,-36.0735 -33.062,-6.4207 -62.5544,-10.5175 -96.9273,-13.4637 -11.3389,-0.972 -55.8898,-2.4329 -65.17839,-2.1369 -28.84683,0.9179 -50.35525,3.0191 -68.40836,6.6832 -2.01615,0.4092 -3.79749,0.611 -3.95853,0.4484 -0.16106,-0.1625 -4.1955,-11.9196 -8.96543,-26.12686 -6.70514,-19.9713 -8.56066,-25.8914 -8.17906,-26.0965 0.27146,-0.1458 1.75633,-0.4019 3.29972,-0.5689 29.7322,-3.2173 65.21703,-2.4116 103.07615,2.34 81.6092,10.2427 167.6013,38.30126 250.82527,81.84256 12.4866,6.5329 28.6465,15.4716 29.2087,16.1566 0.2258,0.2751 0.3495,0.4847 0.2749,0.4659 -0.075,-0.019 -0.5441,-0.1729 -1.0433,-0.3426 z"
       style="fill:#f0cb8e;stroke-width:0.36098525" />
    <path
       inkscape:connector-curvature="0"
       id="path5266"
       d="m 730.23557,-497.18097 c -4.3455,-12.8881 -7.84469,-23.5885 -7.77599,-23.7788 0.14101,-0.3904 12.51893,-3.2199 19.76662,-4.5184 38.19762,-6.8435 87.59951,-7.0088 142.92811,-0.4782 45.7422,5.3992 97.1899,15.4419 148.99069,29.0837 19.7214,5.1936 43.7236,12.1999 43.7236,12.7631 0,0.4111 1.3518,0.4752 -11.1528,-0.5281 -77.25589,-6.1976 -168.63139,-6.6634 -235.94029,-1.2024 -32.037,2.5991 -60.97216,6.3333 -85.57538,11.0434 -3.01226,0.5767 -5.83387,1.0485 -6.27025,1.0485 -0.72738,0 -1.45097,-1.9503 -8.69431,-23.4328 z"
       style="fill:#f0cb8e;stroke-width:0.36098525" />
    <path
       inkscape:connector-curvature="0"
       id="path4558-7-9-6-6-1-5"
       d="m 1054.4161,-623.82397 c -16.5253,-17.3766 -17.3154,-18.15 -18.5389,-18.15 -0.7029,0 -12.0704,1.245 -25.2611,2.7668 -13.1906,1.5218 -24.3363,2.767 -24.7682,2.767 -0.5681,0 -0.7379,-0.1673 -0.614,-0.6052 0.094,-0.333 5.7882,-9.7104 12.6533,-20.8388 6.8651,-11.1285 12.5927,-20.5147 12.7279,-20.8583 0.1669,-0.4241 -3.2454,-7.6659 -10.6246,-22.5479 -5.9787,-12.0577 -10.7581,-22.0942 -10.6208,-22.3033 0.1373,-0.2092 0.525,-0.2998 0.8617,-0.2016 0.3366,0.098 2.9268,0.6381 5.756,1.1997 6.4082,1.2721 25.049,5.0396 35.2085,7.1162 4.2085,0.8602 8.0519,1.564 8.5409,1.564 0.6653,0 5.5715,-4.1123 19.4982,-16.3426 10.235,-8.9883 18.8242,-16.391 19.087,-16.4504 0.6452,-0.1459 0.5429,-0.918 3.2898,24.8379 1.3288,12.4601 2.5551,22.9659 2.7248,23.3464 0.1975,0.4424 8.4627,4.93 22.9322,12.4513 12.4427,6.4678 22.6281,11.8485 22.634,11.9571 0.01,0.1086 -5.9001,2.66 -13.1246,5.6699 -7.2244,3.0098 -17.7649,7.4025 -23.4232,9.7616 -5.6584,2.3592 -10.5534,4.5549 -10.8778,4.8793 -0.3977,0.398 -1.6949,5.9932 -3.9857,17.1918 -5.2971,25.8945 -6.3771,30.9561 -6.6038,30.9474 -0.116,-0.01 -7.9782,-8.1757 -17.4716,-18.1583 z"
       style="fill:#f0cb8e;stroke-width:0.36098525" />
    <path
       id="path40"
       inkscape:label="part"
       style="stroke:#000000;stroke-width:1;fill:none"
       d="M 52.0,359.0 L 61.4095454537,359.0 L 61.4095454537,353.0 L 70.4995454554,353.0 L 70.4995454554,359.0 L 79.8640909082,359.0 L 79.8640909082,353.0 L 88.9540909099,353.0 L 88.9540909099,359.0 L 98.3186363628,359.0 L 98.3186363628,353.0 L 107.408636364,353.0 L 107.408636364,359.0 L 116.773181817,359.0 L 116.773181817,353.0 L 125.863181819,353.0 L 125.863181819,359.0 L 135.227727272,359.0 L 135.227727272,353.0 L 144.317727274,353.0 L 144.317727274,359.0 L 153.682272726,359.0 L 153.682272726,353.0 L 162.772272728,353.0 L 162.772272728,359.0 L 172.136818181,359.0 L 172.136818181,353.0 L 181.226818183,353.0 L 181.226818183,359.0 L 190.591363636,359.0 L 190.591363636,353.0 L 199.681363637,353.0 L 199.681363637,359.0 L 209.04590909,359.0 L 209.04590909,353.0 L 218.135909092,353.0 L 218.135909092,359.0 L 227.500454545,359.0 L 227.500454545,353.0 L 236.590454546,353.0 L 236.590454546,359.0 L 245.954999999,359.0 L 245.954999999,353.0 L 255.045000001,353.0 L 255.045000001,359.0 L 264.409545454,359.0 L 264.409545454,353.0 L 273.499545455,353.0 L 273.499545455,359.0 L 282.864090908,359.0 L 282.864090908,353.0 L 291.95409091,353.0 L 291.95409091,359.0 L 301.318636363,359.0 L 301.318636363,353.0 L 310.408636364,353.0 L 310.408636364,359.0 L 319.773181817,359.0 L 319.773181817,353.0 L 328.863181819,353.0 L 328.863181819,359.0 L 338.227727272,359.0 L 338.227727272,353.0 L 347.317727274,353.0 L 347.317727274,359.0 L 356.682272726,359.0 L 356.682272726,353.0 L 365.772272728,353.0 L 365.772272728,359.0 L 375.136818181,359.0 L 375.136818181,353.0 L 384.226818183,353.0 L 384.226818183,359.0 L 393.591363636,359.0 L 393.591363636,353.0 L 402.681363637,353.0 L 402.681363637,359.0 L 412.04590909,359.0 L 412.04590909,353.0 L 421.135909092,353.0 L 421.135909092,359.0 L 430.500454545,359.0 L 430.500454545,353.0 L 439.590454546,353.0 L 439.590454546,359.0 L 448.954999999,359.0 L 448.954999999,353.0 L 458.045000001,353.0 L 458.045000001,359.0 L 467.409545454,359.0 L 467.409545454,353.0 L 476.499545455,353.0 L 476.499545455,359.0 L 485.864090908,359.0 L 485.864090908,353.0 L 494.95409091,353.0 L 494.95409091,359.0 L 504.318636363,359.0 L 504.318636363,353.0 L 513.408636364,353.0 L 513.408636364,359.0 L 522.773181817,359.0 L 522.773181817,353.0 L 531.863181819,353.0 L 531.863181819,359.0 L 541.227727272,359.0 L 541.227727272,353.0 L 550.317727274,353.0 L 550.317727274,359.0 L 559.682272726,359.0 L 559.682272726,353.0 L 568.772272728,353.0 L 568.772272728,359.0 L 578.136818181,359.0 L 578.136818181,353.0 L 587.226818183,353.0 L 587.226818183,359.0 L 596.591363636,359.0 L 596.591363636,353.0 L 605.681363637,353.0 L 605.681363637,359.0 L 615.04590909,359.0 L 615.04590909,353.0 L 624.135909092,353.0 L 624.135909092,359.0 L 633.500454545,359.0 L 633.500454545,353.0 L 642.590454546,353.0 L 642.590454546,359.0 L 652.0,359.0 " />
    <path
       id="path42"
       inkscape:label="part"
       style="stroke:#000000;stroke-width:1;fill:none"
       d="M 652.0,359.0 L 652.0,363.711666668 L 646.0,363.711666668 L 646.0,372.621666666 L 652.0,372.621666666 L 652.0,383.378333334 L 646.0,383.378333334 L 646.0,392.288333332 L 652.0,392.288333332 L 652.0,397.0 " />
    <path
       id="path44"
       inkscape:label="part"
       style="stroke:#000000;stroke-width:1;fill:none"
       d="M 652.0,397.0 L 642.590454546,397.0 L 642.590454546,397.0 L 633.500454545,397.0 L 633.500454545,397.0 L 624.135909092,397.0 L 624.135909092,397.0 L 615.04590909,397.0 L 615.04590909,397.0 L 605.681363637,397.0 L 605.681363637,397.0 L 596.591363636,397.0 L 596.591363636,397.0 L 587.226818183,397.0 L 587.226818183,397.0 L 578.136818181,397.0 L 578.136818181,397.0 L 568.772272728,397.0 L 568.772272728,397.0 L 559.682272726,397.0 L 559.682272726,397.0 L 550.317727274,397.0 L 550.317727274,397.0 L 541.227727272,397.0 L 541.227727272,397.0 L 531.863181819,397.0 L 531.863181819,397.0 L 522.773181817,397.0 L 522.773181817,397.0 L 513.408636364,397.0 L 513.408636364,397.0 L 504.318636363,397.0 L 504.318636363,397.0 L 494.95409091,397.0 L 494.95409091,397.0 L 485.864090908,397.0 L 485.864090908,397.0 L 476.499545455,397.0 L 476.499545455,397.0 L 467.409545454,397.0 L 467.409545454,397.0 L 458.045000001,397.0 L 458.045000001,397.0 L 448.954999999,397.0 L 448.954999999,397.0 L 439.590454546,397.0 L 439.590454546,397.0 L 430.500454545,397.0 L 430.500454545,397.0 L 421.135909092,397.0 L 421.135909092,397.0 L 412.04590909,397.0 L 412.04590909,397.0 L 402.681363637,397.0 L 402.681363637,397.0 L 393.591363636,397.0 L 393.591363636,397.0 L 384.226818183,397.0 L 384.226818183,397.0 L 375.136818181,397.0 L 375.136818181,397.0 L 365.772272728,397.0 L 365.772272728,397.0 L 356.682272726,397.0 L 356.682272726,397.0 L 347.317727274,397.0 L 347.317727274,397.0 L 338.227727272,397.0 L 338.227727272,397.0 L 328.863181819,397.0 L 328.863181819,397.0 L 319.773181817,397.0 L 319.773181817,397.0 L 310.408636364,397.0 L 310.408636364,397.0 L 301.318636363,397.0 L 301.318636363,397.0 L 291.95409091,397.0 L 291.95409091,397.0 L 282.864090908,397.0 L 282.864090908,397.0 L 273.499545455,397.0 L 273.499545455,397.0 L 264.409545454,397.0 L 264.409545454,397.0 L 255.045000001,397.0 L 255.045000001,397.0 L 245.954999999,397.0 L 245.954999999,397.0 L 236.590454546,397.0 L 236.590454546,397.0 L 227.500454545,397.0 L 227.500454545,397.0 L 218.135909092,397.0 L 218.135909092,397.0 L 209.04590909,397.0 L 209.04590909,397.0 L 199.681363637,397.0 L 199.681363637,397.0 L 190.591363636,397.0 L 190.591363636,397.0 L 181.226818183,397.0 L 181.226818183,397.0 L 172.136818181,397.0 L 172.136818181,397.0 L 162.772272728,397.0 L 162.772272728,397.0 L 153.682272726,397.0 L 153.682272726,397.0 L 144.317727274,397.0 L 144.317727274,397.0 L 135.227727272,397.0 L 135.227727272,397.0 L 125.863181819,397.0 L 125.863181819,397.0 L 116.773181817,397.0 L 116.773181817,397.0 L 107.408636364,397.0 L 107.408636364,397.0 L 98.3186363628,397.0 L 98.3186363628,397.0 L 88.9540909099,397.0 L 88.9540909099,397.0 L 79.8640909082,397.0 L 79.8640909082,397.0 L 70.4995454554,397.0 L 70.4995454554,397.0 L 61.4095454537,397.0 L 61.4095454537,397.0 L 52.0,397.0 " />
    <path
       id="path46"
       inkscape:label="part"
       style="stroke:#000000;stroke-width:1;fill:none"
       d="M 52.0,397.0 L 52.0,392.288333332 L 58.0,392.288333332 L 58.0,383.378333334 L 52.0,383.378333334 L 52.0,372.621666666 L 58.0,372.621666666 L 58.0,363.711666668 L 52.0,363.711666668 L 52.0,359.0 " />
    <path
       id="path48"
       inkscape:label="part"
       style="stroke:#000000;stroke-width:1;fill:none"
       d="M 7.0,58.0 L 11.6216666658,58.0 L 11.6216666658,52.0 L 20.7116666675,52.0 L 20.7116666675,58.0 L 31.2883333325,58.0 L 31.2883333325,52.0 L 40.3783333342,52.0 L 40.3783333342,58.0 L 45.0,58.0 " />
    <path
       id="path50"
       inkscape:label="part"
       style="stroke:#000000;stroke-width:1;fill:none"
       d="M 45.0,58.0 L 45.0,61.1314705874 L 51.0,61.1314705874 L 51.0,70.2214705891 L 45.0,70.2214705891 L 45.0,79.3079411756 L 51.0,79.3079411756 L 51.0,88.3979411773 L 45.0,88.3979411773 L 45.0,97.4844117638 L 51.0,97.4844117638 L 51.0,106.574411766 L 45.0,106.574411766 L 45.0,115.660882352 L 51.0,115.660882352 L 51.0,124.750882354 L 45.0,124.750882354 L 45.0,133.83735294 L 51.0,133.83735294 L 51.0,142.927352942 L 45.0,142.927352942 L 45.0,152.013823529 L 51.0,152.013823529 L 51.0,161.10382353 L 45.0,161.10382353 L 45.0,170.190294117 L 51.0,170.190294117 L 51.0,179.280294119 L 45.0,179.280294119 L 45.0,188.366764705 L 51.0,188.366764705 L 51.0,197.456764707 L 45.0,197.456764707 L 45.0,206.543235293 L 51.0,206.543235293 L 51.0,215.633235295 L 45.0,215.633235295 L 45.0,224.719705881 L 51.0,224.719705881 L 51.0,233.809705883 L 45.0,233.809705883 L 45.0,242.89617647 L 51.0,242.89617647 L 51.0,251.986176471 L 45.0,251.986176471 L 45.0,261.072647058 L 51.0,261.072647058 L 51.0,270.16264706 L 45.0,270.16264706 L 45.0,279.249117646 L 51.0,279.249117646 L 51.0,288.339117648 L 45.0,288.339117648 L 45.0,297.425588234 L 51.0,297.425588234 L 51.0,306.515588236 L 45.0,306.515588236 L 45.0,315.602058823 L 51.0,315.602058823 L 51.0,324.692058824 L 45.0,324.692058824 L 45.0,333.778529411 L 51.0,333.778529411 L 51.0,342.868529413 L 45.0,342.868529413 L 45.0,346.0 " />
    <path
       id="path52"
       inkscape:label="part"
       style="stroke:#000000;stroke-width:1;fill:none"
       d="M 45.0,346.0 L 40.3783333342,346.0 L 40.3783333342,352.0 L 31.2883333325,352.0 L 31.2883333325,346.0 L 20.7116666675,346.0 L 20.7116666675,352.0 L 11.6216666658,352.0 L 11.6216666658,346.0 L 7.0,346.0 " />
    <path
       id="path54"
       inkscape:label="part"
       style="stroke:#000000;stroke-width:1;fill:none"
       d="M 7.0,346.0 L 7.0,342.868529413 L 7.0,342.868529413 L 7.0,333.778529411 L 7.0,333.778529411 L 7.0,324.692058824 L 7.0,324.692058824 L 7.0,315.602058823 L 7.0,315.602058823 L 7.0,306.515588236 L 7.0,306.515588236 L 7.0,297.425588234 L 7.0,297.425588234 L 7.0,288.339117648 L 7.0,288.339117648 L 7.0,279.249117646 L 7.0,279.249117646 L 7.0,270.16264706 L 7.0,270.16264706 L 7.0,261.072647058 L 7.0,261.072647058 L 7.0,251.986176471 L 7.0,251.986176471 L 7.0,242.89617647 L 7.0,242.89617647 L 7.0,233.809705883 L 7.0,233.809705883 L 7.0,224.719705881 L 7.0,224.719705881 L 7.0,215.633235295 L 7.0,215.633235295 L 7.0,206.543235293 L 7.0,206.543235293 L 7.0,197.456764707 L 7.0,197.456764707 L 7.0,188.366764705 L 7.0,188.366764705 L 7.0,179.280294119 L 7.0,179.280294119 L 7.0,170.190294117 L 7.0,170.190294117 L 7.0,161.10382353 L 7.0,161.10382353 L 7.0,152.013823529 L 7.0,152.013823529 L 7.0,142.927352942 L 7.0,142.927352942 L 7.0,133.83735294 L 7.0,133.83735294 L 7.0,124.750882354 L 7.0,124.750882354 L 7.0,115.660882352 L 7.0,115.660882352 L 7.0,106.574411766 L 7.0,106.574411766 L 7.0,97.4844117638 L 7.0,97.4844117638 L 7.0,88.3979411773 L 7.0,88.3979411773 L 7.0,79.3079411756 L 7.0,79.3079411756 L 7.0,70.2214705891 L 7.0,70.2214705891 L 7.0,61.1314705874 L 7.0,61.1314705874 L 7.0,58.0 " />
    <path
       id="path56"
       inkscape:label="part"
       style="stroke:#000000;stroke-width:1;fill:none"
       d="M 52.0,52.0 L 61.4995454554,52.0 L 61.4995454554,58.0 L 70.4095454537,58.0 L 70.4095454537,52.0 L 79.9540909099,52.0 L 79.9540909099,58.0 L 88.8640909082,58.0 L 88.8640909082,52.0 L 98.4086363645,52.0 L 98.4086363645,58.0 L 107.318636363,58.0 L 107.318636363,52.0 L 116.863181819,52.0 L 116.863181819,58.0 L 125.773181817,58.0 L 125.773181817,52.0 L 135.317727274,52.0 L 135.317727274,58.0 L 144.227727272,58.0 L 144.227727272,52.0 L 153.772272728,52.0 L 153.772272728,58.0 L 162.682272726,58.0 L 162.682272726,52.0 L 172.226818183,52.0 L 172.226818183,58.0 L 181.136818181,58.0 L 181.136818181,52.0 L 190.681363637,52.0 L 190.681363637,58.0 L 199.591363636,58.0 L 199.591363636,52.0 L 209.135909092,52.0 L 209.135909092,58.0 L 218.04590909,58.0 L 218.04590909,52.0 L 227.590454546,52.0 L 227.590454546,58.0 L 236.500454545,58.0 L 236.500454545,52.0 L 246.045000001,52.0 L 246.045000001,58.0 L 254.954999999,58.0 L 254.954999999,52.0 L 264.499545455,52.0 L 264.499545455,58.0 L 273.409545454,58.0 L 273.409545454,52.0 L 282.95409091,52.0 L 282.95409091,58.0 L 291.864090908,58.0 L 291.864090908,52.0 L 301.408636364,52.0 L 301.408636364,58.0 L 310.318636363,58.0 L 310.318636363,52.0 L 319.863181819,52.0 L 319.863181819,58.0 L 328.773181817,58.0 L 328.773181817,52.0 L 338.317727274,52.0 L 338.317727274,58.0 L 347.227727272,58.0 L 347.227727272,52.0 L 356.772272728,52.0 L 356.772272728,58.0 L 365.682272726,58.0 L 365.682272726,52.0 L 375.226818183,52.0 L 375.226818183,58.0 L 384.136818181,58.0 L 384.136818181,52.0 L 393.681363637,52.0 L 393.681363637,58.0 L 402.591363636,58.0 L 402.591363636,52.0 L 412.135909092,52.0 L 412.135909092,58.0 L 421.04590909,58.0 L 421.04590909,52.0 L 430.590454546,52.0 L 430.590454546,58.0 L 439.500454545,58.0 L 439.500454545,52.0 L 449.045000001,52.0 L 449.045000001,58.0 L 457.954999999,58.0 L 457.954999999,52.0 L 467.499545455,52.0 L 467.499545455,58.0 L 476.409545454,58.0 L 476.409545454,52.0 L 485.95409091,52.0 L 485.95409091,58.0 L 494.864090908,58.0 L 494.864090908,52.0 L 504.408636364,52.0 L 504.408636364,58.0 L 513.318636363,58.0 L 513.318636363,52.0 L 522.863181819,52.0 L 522.863181819,58.0 L 531.773181817,58.0 L 531.773181817,52.0 L 541.317727274,52.0 L 541.317727274,58.0 L 550.227727272,58.0 L 550.227727272,52.0 L 559.772272728,52.0 L 559.772272728,58.0 L 568.682272726,58.0 L 568.682272726,52.0 L 578.226818183,52.0 L 578.226818183,58.0 L 587.136818181,58.0 L 587.136818181,52.0 L 596.681363637,52.0 L 596.681363637,58.0 L 605.591363636,58.0 L 605.591363636,52.0 L 615.135909092,52.0 L 615.135909092,58.0 L 624.04590909,58.0 L 624.04590909,52.0 L 633.590454546,52.0 L 633.590454546,58.0 L 642.500454545,58.0 L 642.500454545,52.0 L 652.0,52.0 " />
    <path
       id="path58"
       inkscape:label="part"
       style="stroke:#000000;stroke-width:1;fill:none"
       d="M 652.0,52.0 L 652.0,61.2214705891 L 646.0,61.2214705891 L 646.0,70.1314705874 L 652.0,70.1314705874 L 652.0,79.3979411773 L 646.0,79.3979411773 L 646.0,88.3079411756 L 652.0,88.3079411756 L 652.0,97.5744117656 L 646.0,97.5744117656 L 646.0,106.484411764 L 652.0,106.484411764 L 652.0,115.750882354 L 646.0,115.750882354 L 646.0,124.660882352 L 652.0,124.660882352 L 652.0,133.927352942 L 646.0,133.927352942 L 646.0,142.83735294 L 652.0,142.83735294 L 652.0,152.10382353 L 646.0,152.10382353 L 646.0,161.013823529 L 652.0,161.013823529 L 652.0,170.280294119 L 646.0,170.280294119 L 646.0,179.190294117 L 652.0,179.190294117 L 652.0,188.456764707 L 646.0,188.456764707 L 646.0,197.366764705 L 652.0,197.366764705 L 652.0,206.633235295 L 646.0,206.633235295 L 646.0,215.543235293 L 652.0,215.543235293 L 652.0,224.809705883 L 646.0,224.809705883 L 646.0,233.719705881 L 652.0,233.719705881 L 652.0,242.986176471 L 646.0,242.986176471 L 646.0,251.89617647 L 652.0,251.89617647 L 652.0,261.16264706 L 646.0,261.16264706 L 646.0,270.072647058 L 652.0,270.072647058 L 652.0,279.339117648 L 646.0,279.339117648 L 646.0,288.249117646 L 652.0,288.249117646 L 652.0,297.515588236 L 646.0,297.515588236 L 646.0,306.425588234 L 652.0,306.425588234 L 652.0,315.692058824 L 646.0,315.692058824 L 646.0,324.602058823 L 652.0,324.602058823 L 652.0,333.868529413 L 646.0,333.868529413 L 646.0,342.778529411 L 652.0,342.778529411 L 652.0,352.0 " />
    <path
       id="path60"
       inkscape:label="part"
       style="stroke:#000000;stroke-width:1;fill:none"
       d="M 652.0,352.0 L 642.500454545,352.0 L 642.500454545,346.0 L 633.590454546,346.0 L 633.590454546,352.0 L 624.04590909,352.0 L 624.04590909,346.0 L 615.135909092,346.0 L 615.135909092,352.0 L 605.591363636,352.0 L 605.591363636,346.0 L 596.681363637,346.0 L 596.681363637,352.0 L 587.136818181,352.0 L 587.136818181,346.0 L 578.226818183,346.0 L 578.226818183,352.0 L 568.682272726,352.0 L 568.682272726,346.0 L 559.772272728,346.0 L 559.772272728,352.0 L 550.227727272,352.0 L 550.227727272,346.0 L 541.317727274,346.0 L 541.317727274,352.0 L 531.773181817,352.0 L 531.773181817,346.0 L 522.863181819,346.0 L 522.863181819,352.0 L 513.318636363,352.0 L 513.318636363,346.0 L 504.408636364,346.0 L 504.408636364,352.0 L 494.864090908,352.0 L 494.864090908,346.0 L 485.95409091,346.0 L 485.95409091,352.0 L 476.409545454,352.0 L 476.409545454,346.0 L 467.499545455,346.0 L 467.499545455,352.0 L 457.954999999,352.0 L 457.954999999,346.0 L 449.045000001,346.0 L 449.045000001,352.0 L 439.500454545,352.0 L 439.500454545,346.0 L 430.590454546,346.0 L 430.590454546,352.0 L 421.04590909,352.0 L 421.04590909,346.0 L 412.135909092,346.0 L 412.135909092,352.0 L 402.591363636,352.0 L 402.591363636,346.0 L 393.681363637,346.0 L 393.681363637,352.0 L 384.136818181,352.0 L 384.136818181,346.0 L 375.226818183,346.0 L 375.226818183,352.0 L 365.682272726,352.0 L 365.682272726,346.0 L 356.772272728,346.0 L 356.772272728,352.0 L 347.227727272,352.0 L 347.227727272,346.0 L 338.317727274,346.0 L 338.317727274,352.0 L 328.773181817,352.0 L 328.773181817,346.0 L 319.863181819,346.0 L 319.863181819,352.0 L 310.318636363,352.0 L 310.318636363,346.0 L 301.408636364,346.0 L 301.408636364,352.0 L 291.864090908,352.0 L 291.864090908,346.0 L 282.95409091,346.0 L 282.95409091,352.0 L 273.409545454,352.0 L 273.409545454,346.0 L 264.499545455,346.0 L 264.499545455,352.0 L 254.954999999,352.0 L 254.954999999,346.0 L 246.045000001,346.0 L 246.045000001,352.0 L 236.500454545,352.0 L 236.500454545,346.0 L 227.590454546,346.0 L 227.590454546,352.0 L 218.04590909,352.0 L 218.04590909,346.0 L 209.135909092,346.0 L 209.135909092,352.0 L 199.591363636,352.0 L 199.591363636,346.0 L 190.681363637,346.0 L 190.681363637,352.0 L 181.136818181,352.0 L 181.136818181,346.0 L 172.226818183,346.0 L 172.226818183,352.0 L 162.682272726,352.0 L 162.682272726,346.0 L 153.772272728,346.0 L 153.772272728,352.0 L 144.227727272,352.0 L 144.227727272,346.0 L 135.317727274,346.0 L 135.317727274,352.0 L 125.773181817,352.0 L 125.773181817,346.0 L 116.863181819,346.0 L 116.863181819,352.0 L 107.318636363,352.0 L 107.318636363,346.0 L 98.4086363645,346.0 L 98.4086363645,352.0 L 88.8640909082,352.0 L 88.8640909082,346.0 L 79.9540909099,346.0 L 79.9540909099,352.0 L 70.4095454537,352.0 L 70.4095454537,346.0 L 61.4995454554,346.0 L 61.4995454554,352.0 L 52.0,352.0 " />
    <path
       id="path62"
       inkscape:label="part"
       style="stroke:#000000;stroke-width:1;fill:none"
       d="M 52.0,352.0 L 52.0,342.778529411 L 58.0,342.778529411 L 58.0,333.868529413 L 52.0,333.868529413 L 52.0,324.602058823 L 58.0,324.602058823 L 58.0,315.692058824 L 52.0,315.692058824 L 52.0,306.425588234 L 58.0,306.425588234 L 58.0,297.515588236 L 52.0,297.515588236 L 52.0,288.249117646 L 58.0,288.249117646 L 58.0,279.339117648 L 52.0,279.339117648 L 52.0,270.072647058 L 58.0,270.072647058 L 58.0,261.16264706 L 52.0,261.16264706 L 52.0,251.89617647 L 58.0,251.89617647 L 58.0,242.986176471 L 52.0,242.986176471 L 52.0,233.719705881 L 58.0,233.719705881 L 58.0,224.809705883 L 52.0,224.809705883 L 52.0,215.543235293 L 58.0,215.543235293 L 58.0,206.633235295 L 52.0,206.633235295 L 52.0,197.366764705 L 58.0,197.366764705 L 58.0,188.456764707 L 52.0,188.456764707 L 52.0,179.190294117 L 58.0,179.190294117 L 58.0,170.280294119 L 52.0,170.280294119 L 52.0,161.013823529 L 58.0,161.013823529 L 58.0,152.10382353 L 52.0,152.10382353 L 52.0,142.83735294 L 58.0,142.83735294 L 58.0,133.927352942 L 52.0,133.927352942 L 52.0,124.660882352 L 58.0,124.660882352 L 58.0,115.750882354 L 52.0,115.750882354 L 52.0,106.484411764 L 58.0,106.484411764 L 58.0,97.5744117656 L 52.0,97.5744117656 L 52.0,88.3079411756 L 58.0,88.3079411756 L 58.0,79.3979411773 L 52.0,79.3979411773 L 52.0,70.1314705874 L 58.0,70.1314705874 L 58.0,61.2214705891 L 52.0,61.2214705891 L 52.0,52.0 " />
    <path
       id="path64"
       inkscape:label="part"
       style="stroke:#000000;stroke-width:1;fill:none"
       d="M 659.0,58.0 L 663.621666666,58.0 L 663.621666666,52.0 L 672.711666668,52.0 L 672.711666668,58.0 L 683.288333332,58.0 L 683.288333332,52.0 L 692.378333334,52.0 L 692.378333334,58.0 L 697.0,58.0 " />
    <path
       id="path66"
       inkscape:label="part"
       style="stroke:#000000;stroke-width:1;fill:none"
       d="M 697.0,58.0 L 697.0,61.1314705874 L 697.0,61.1314705874 L 697.0,70.2214705891 L 697.0,70.2214705891 L 697.0,79.3079411756 L 697.0,79.3079411756 L 697.0,88.3979411773 L 697.0,88.3979411773 L 697.0,97.4844117638 L 697.0,97.4844117638 L 697.0,106.574411766 L 697.0,106.574411766 L 697.0,115.660882352 L 697.0,115.660882352 L 697.0,124.750882354 L 697.0,124.750882354 L 697.0,133.83735294 L 697.0,133.83735294 L 697.0,142.927352942 L 697.0,142.927352942 L 697.0,152.013823529 L 697.0,152.013823529 L 697.0,161.10382353 L 697.0,161.10382353 L 697.0,170.190294117 L 697.0,170.190294117 L 697.0,179.280294119 L 697.0,179.280294119 L 697.0,188.366764705 L 697.0,188.366764705 L 697.0,197.456764707 L 697.0,197.456764707 L 697.0,206.543235293 L 697.0,206.543235293 L 697.0,215.633235295 L 697.0,215.633235295 L 697.0,224.719705881 L 697.0,224.719705881 L 697.0,233.809705883 L 697.0,233.809705883 L 697.0,242.89617647 L 697.0,242.89617647 L 697.0,251.986176471 L 697.0,251.986176471 L 697.0,261.072647058 L 697.0,261.072647058 L 697.0,270.16264706 L 697.0,270.16264706 L 697.0,279.249117646 L 697.0,279.249117646 L 697.0,288.339117648 L 697.0,288.339117648 L 697.0,297.425588234 L 697.0,297.425588234 L 697.0,306.515588236 L 697.0,306.515588236 L 697.0,315.602058823 L 697.0,315.602058823 L 697.0,324.692058824 L 697.0,324.692058824 L 697.0,333.778529411 L 697.0,333.778529411 L 697.0,342.868529413 L 697.0,342.868529413 L 697.0,346.0 " />
    <path
       id="path68"
       inkscape:label="part"
       style="stroke:#000000;stroke-width:1;fill:none"
       d="M 697.0,346.0 L 692.378333334,346.0 L 692.378333334,352.0 L 683.288333332,352.0 L 683.288333332,346.0 L 672.711666668,346.0 L 672.711666668,352.0 L 663.621666666,352.0 L 663.621666666,346.0 L 659.0,346.0 " />
    <path
       id="path70"
       inkscape:label="part"
       style="stroke:#000000;stroke-width:1;fill:none"
       d="M 659.0,346.0 L 659.0,342.868529413 L 653.0,342.868529413 L 653.0,333.778529411 L 659.0,333.778529411 L 659.0,324.692058824 L 653.0,324.692058824 L 653.0,315.602058823 L 659.0,315.602058823 L 659.0,306.515588236 L 653.0,306.515588236 L 653.0,297.425588234 L 659.0,297.425588234 L 659.0,288.339117648 L 653.0,288.339117648 L 653.0,279.249117646 L 659.0,279.249117646 L 659.0,270.16264706 L 653.0,270.16264706 L 653.0,261.072647058 L 659.0,261.072647058 L 659.0,251.986176471 L 653.0,251.986176471 L 653.0,242.89617647 L 659.0,242.89617647 L 659.0,233.809705883 L 653.0,233.809705883 L 653.0,224.719705881 L 659.0,224.719705881 L 659.0,215.633235295 L 653.0,215.633235295 L 653.0,206.543235293 L 659.0,206.543235293 L 659.0,197.456764707 L 653.0,197.456764707 L 653.0,188.366764705 L 659.0,188.366764705 L 659.0,179.280294119 L 653.0,179.280294119 L 653.0,170.190294117 L 659.0,170.190294117 L 659.0,161.10382353 L 653.0,161.10382353 L 653.0,152.013823529 L 659.0,152.013823529 L 659.0,142.927352942 L 653.0,142.927352942 L 653.0,133.83735294 L 659.0,133.83735294 L 659.0,124.750882354 L 653.0,124.750882354 L 653.0,115.660882352 L 659.0,115.660882352 L 659.0,106.574411766 L 653.0,106.574411766 L 653.0,97.4844117638 L 659.0,97.4844117638 L 659.0,88.3979411773 L 653.0,88.3979411773 L 653.0,79.3079411756 L 659.0,79.3079411756 L 659.0,70.2214705891 L 653.0,70.2214705891 L 653.0,61.1314705874 L 659.0,61.1314705874 L 659.0,58.0 " />
    <path
       id="path72"
       inkscape:label="part"
       style="stroke:#000000;stroke-width:1;fill:none"
       d="M 704.0,52.0 L 713.499545455,52.0 L 713.499545455,52.0 L 722.409545454,52.0 L 722.409545454,52.0 L 731.95409091,52.0 L 731.95409091,52.0 L 740.864090908,52.0 L 740.864090908,52.0 L 750.408636364,52.0 L 750.408636364,52.0 L 759.318636363,52.0 L 759.318636363,52.0 L 768.863181819,52.0 L 768.863181819,52.0 L 777.773181817,52.0 L 777.773181817,52.0 L 787.317727274,52.0 L 787.317727274,52.0 L 796.227727272,52.0 L 796.227727272,52.0 L 805.772272728,52.0 L 805.772272728,52.0 L 814.682272726,52.0 L 814.682272726,52.0 L 824.226818183,52.0 L 824.226818183,52.0 L 833.136818181,52.0 L 833.136818181,52.0 L 842.681363637,52.0 L 842.681363637,52.0 L 851.591363636,52.0 L 851.591363636,52.0 L 861.135909092,52.0 L 861.135909092,52.0 L 870.04590909,52.0 L 870.04590909,52.0 L 879.590454546,52.0 L 879.590454546,52.0 L 888.500454545,52.0 L 888.500454545,52.0 L 898.045000001,52.0 L 898.045000001,52.0 L 906.954999999,52.0 L 906.954999999,52.0 L 916.499545455,52.0 L 916.499545455,52.0 L 925.409545454,52.0 L 925.409545454,52.0 L 934.95409091,52.0 L 934.95409091,52.0 L 943.864090908,52.0 L 943.864090908,52.0 L 953.408636364,52.0 L 953.408636364,52.0 L 962.318636363,52.0 L 962.318636363,52.0 L 971.863181819,52.0 L 971.863181819,52.0 L 980.773181817,52.0 L 980.773181817,52.0 L 990.317727274,52.0 L 990.317727274,52.0 L 999.227727272,52.0 L 999.227727272,52.0 L 1008.77227273,52.0 L 1008.77227273,52.0 L 1017.68227273,52.0 L 1017.68227273,52.0 L 1027.22681818,52.0 L 1027.22681818,52.0 L 1036.13681818,52.0 L 1036.13681818,52.0 L 1045.68136364,52.0 L 1045.68136364,52.0 L 1054.59136364,52.0 L 1054.59136364,52.0 L 1064.13590909,52.0 L 1064.13590909,52.0 L 1073.04590909,52.0 L 1073.04590909,52.0 L 1082.59045455,52.0 L 1082.59045455,52.0 L 1091.50045454,52.0 L 1091.50045454,52.0 L 1101.045,52.0 L 1101.045,52.0 L 1109.955,52.0 L 1109.955,52.0 L 1119.49954546,52.0 L 1119.49954546,52.0 L 1128.40954545,52.0 L 1128.40954545,52.0 L 1137.95409091,52.0 L 1137.95409091,52.0 L 1146.86409091,52.0 L 1146.86409091,52.0 L 1156.40863636,52.0 L 1156.40863636,52.0 L 1165.31863636,52.0 L 1165.31863636,52.0 L 1174.86318182,52.0 L 1174.86318182,52.0 L 1183.77318182,52.0 L 1183.77318182,52.0 L 1193.31772727,52.0 L 1193.31772727,52.0 L 1202.22772727,52.0 L 1202.22772727,52.0 L 1211.77227273,52.0 L 1211.77227273,52.0 L 1220.68227273,52.0 L 1220.68227273,52.0 L 1230.22681818,52.0 L 1230.22681818,52.0 L 1239.13681818,52.0 L 1239.13681818,52.0 L 1248.68136364,52.0 L 1248.68136364,52.0 L 1257.59136364,52.0 L 1257.59136364,52.0 L 1267.13590909,52.0 L 1267.13590909,52.0 L 1276.04590909,52.0 L 1276.04590909,52.0 L 1285.59045455,52.0 L 1285.59045455,52.0 L 1294.50045454,52.0 L 1294.50045454,52.0 L 1304.0,52.0 " />
    <path
       id="path74"
       inkscape:label="part"
       style="stroke:#000000;stroke-width:1;fill:none"
       d="M 1304.0,52.0 L 1304.0,61.2214705891 L 1304.0,61.2214705891 L 1304.0,70.1314705874 L 1304.0,70.1314705874 L 1304.0,79.3979411773 L 1304.0,79.3979411773 L 1304.0,88.3079411756 L 1304.0,88.3079411756 L 1304.0,97.5744117656 L 1304.0,97.5744117656 L 1304.0,106.484411764 L 1304.0,106.484411764 L 1304.0,115.750882354 L 1304.0,115.750882354 L 1304.0,124.660882352 L 1304.0,124.660882352 L 1304.0,133.927352942 L 1304.0,133.927352942 L 1304.0,142.83735294 L 1304.0,142.83735294 L 1304.0,152.10382353 L 1304.0,152.10382353 L 1304.0,161.013823529 L 1304.0,161.013823529 L 1304.0,170.280294119 L 1304.0,170.280294119 L 1304.0,179.190294117 L 1304.0,179.190294117 L 1304.0,188.456764707 L 1304.0,188.456764707 L 1304.0,197.366764705 L 1304.0,197.366764705 L 1304.0,206.633235295 L 1304.0,206.633235295 L 1304.0,215.543235293 L 1304.0,215.543235293 L 1304.0,224.809705883 L 1304.0,224.809705883 L 1304.0,233.719705881 L 1304.0,233.719705881 L 1304.0,242.986176471 L 1304.0,242.986176471 L 1304.0,251.89617647 L 1304.0,251.89617647 L 1304.0,261.16264706 L 1304.0,261.16264706 L 1304.0,270.072647058 L 1304.0,270.072647058 L 1304.0,279.339117648 L 1304.0,279.339117648 L 1304.0,288.249117646 L 1304.0,288.249117646 L 1304.0,297.515588236 L 1304.0,297.515588236 L 1304.0,306.425588234 L 1304.0,306.425588234 L 1304.0,315.692058824 L 1304.0,315.692058824 L 1304.0,324.602058823 L 1304.0,324.602058823 L 1304.0,333.868529413 L 1304.0,333.868529413 L 1304.0,342.778529411 L 1304.0,342.778529411 L 1304.0,352.0 " />
    <path
       id="path76"
       inkscape:label="part"
       style="stroke:#000000;stroke-width:1;fill:none"
       d="M 1304.0,352.0 L 1294.50045454,352.0 L 1294.50045454,352.0 L 1285.59045455,352.0 L 1285.59045455,352.0 L 1276.04590909,352.0 L 1276.04590909,352.0 L 1267.13590909,352.0 L 1267.13590909,352.0 L 1257.59136364,352.0 L 1257.59136364,352.0 L 1248.68136364,352.0 L 1248.68136364,352.0 L 1239.13681818,352.0 L 1239.13681818,352.0 L 1230.22681818,352.0 L 1230.22681818,352.0 L 1220.68227273,352.0 L 1220.68227273,352.0 L 1211.77227273,352.0 L 1211.77227273,352.0 L 1202.22772727,352.0 L 1202.22772727,352.0 L 1193.31772727,352.0 L 1193.31772727,352.0 L 1183.77318182,352.0 L 1183.77318182,352.0 L 1174.86318182,352.0 L 1174.86318182,352.0 L 1165.31863636,352.0 L 1165.31863636,352.0 L 1156.40863636,352.0 L 1156.40863636,352.0 L 1146.86409091,352.0 L 1146.86409091,352.0 L 1137.95409091,352.0 L 1137.95409091,352.0 L 1128.40954545,352.0 L 1128.40954545,352.0 L 1119.49954546,352.0 L 1119.49954546,352.0 L 1109.955,352.0 L 1109.955,352.0 L 1101.045,352.0 L 1101.045,352.0 L 1091.50045454,352.0 L 1091.50045454,352.0 L 1082.59045455,352.0 L 1082.59045455,352.0 L 1073.04590909,352.0 L 1073.04590909,352.0 L 1064.13590909,352.0 L 1064.13590909,352.0 L 1054.59136364,352.0 L 1054.59136364,352.0 L 1045.68136364,352.0 L 1045.68136364,352.0 L 1036.13681818,352.0 L 1036.13681818,352.0 L 1027.22681818,352.0 L 1027.22681818,352.0 L 1017.68227273,352.0 L 1017.68227273,352.0 L 1008.77227273,352.0 L 1008.77227273,352.0 L 999.227727272,352.0 L 999.227727272,352.0 L 990.317727274,352.0 L 990.317727274,352.0 L 980.773181817,352.0 L 980.773181817,352.0 L 971.863181819,352.0 L 971.863181819,352.0 L 962.318636363,352.0 L 962.318636363,352.0 L 953.408636364,352.0 L 953.408636364,352.0 L 943.864090908,352.0 L 943.864090908,352.0 L 934.95409091,352.0 L 934.95409091,352.0 L 925.409545454,352.0 L 925.409545454,352.0 L 916.499545455,352.0 L 916.499545455,352.0 L 906.954999999,352.0 L 906.954999999,352.0 L 898.045000001,352.0 L 898.045000001,352.0 L 888.500454545,352.0 L 888.500454545,352.0 L 879.590454546,352.0 L 879.590454546,352.0 L 870.04590909,352.0 L 870.04590909,352.0 L 861.135909092,352.0 L 861.135909092,352.0 L 851.591363636,352.0 L 851.591363636,352.0 L 842.681363637,352.0 L 842.681363637,352.0 L 833.136818181,352.0 L 833.136818181,352.0 L 824.226818183,352.0 L 824.226818183,352.0 L 814.682272726,352.0 L 814.682272726,352.0 L 805.772272728,352.0 L 805.772272728,352.0 L 796.227727272,352.0 L 796.227727272,352.0 L 787.317727274,352.0 L 787.317727274,352.0 L 777.773181817,352.0 L 777.773181817,352.0 L 768.863181819,352.0 L 768.863181819,352.0 L 759.318636363,352.0 L 759.318636363,352.0 L 750.408636364,352.0 L 750.408636364,352.0 L 740.864090908,352.0 L 740.864090908,352.0 L 731.95409091,352.0 L 731.95409091,352.0 L 722.409545454,352.0 L 722.409545454,352.0 L 713.499545455,352.0 L 713.499545455,352.0 L 704.0,352.0 " />
    <path
       id="path78"
       inkscape:label="part"
       style="stroke:#000000;stroke-width:1;fill:none"
       d="M 704.0,352.0 L 704.0,342.778529411 L 704.0,342.778529411 L 704.0,333.868529413 L 704.0,333.868529413 L 704.0,324.602058823 L 704.0,324.602058823 L 704.0,315.692058824 L 704.0,315.692058824 L 704.0,306.425588234 L 704.0,306.425588234 L 704.0,297.515588236 L 704.0,297.515588236 L 704.0,288.249117646 L 704.0,288.249117646 L 704.0,279.339117648 L 704.0,279.339117648 L 704.0,270.072647058 L 704.0,270.072647058 L 704.0,261.16264706 L 704.0,261.16264706 L 704.0,251.89617647 L 704.0,251.89617647 L 704.0,242.986176471 L 704.0,242.986176471 L 704.0,233.719705881 L 704.0,233.719705881 L 704.0,224.809705883 L 704.0,224.809705883 L 704.0,215.543235293 L 704.0,215.543235293 L 704.0,206.633235295 L 704.0,206.633235295 L 704.0,197.366764705 L 704.0,197.366764705 L 704.0,188.456764707 L 704.0,188.456764707 L 704.0,179.190294117 L 704.0,179.190294117 L 704.0,170.280294119 L 704.0,170.280294119 L 704.0,161.013823529 L 704.0,161.013823529 L 704.0,152.10382353 L 704.0,152.10382353 L 704.0,142.83735294 L 704.0,142.83735294 L 704.0,133.927352942 L 704.0,133.927352942 L 704.0,124.660882352 L 704.0,124.660882352 L 704.0,115.750882354 L 704.0,115.750882354 L 704.0,106.484411764 L 704.0,106.484411764 L 704.0,97.5744117656 L 704.0,97.5744117656 L 704.0,88.3079411756 L 704.0,88.3079411756 L 704.0,79.3979411773 L 704.0,79.3979411773 L 704.0,70.1314705874 L 704.0,70.1314705874 L 704.0,61.2214705891 L 704.0,61.2214705891 L 704.0,52.0 " />
    <path
       id="path80"
       inkscape:label="part"
       style="stroke:#000000;stroke-width:1;fill:none"
       d="M 52.0,7.0 L 61.4095454537,7.0 L 61.4095454537,7.0 L 70.4995454554,7.0 L 70.4995454554,7.0 L 79.8640909082,7.0 L 79.8640909082,7.0 L 88.9540909099,7.0 L 88.9540909099,7.0 L 98.3186363628,7.0 L 98.3186363628,7.0 L 107.408636364,7.0 L 107.408636364,7.0 L 116.773181817,7.0 L 116.773181817,7.0 L 125.863181819,7.0 L 125.863181819,7.0 L 135.227727272,7.0 L 135.227727272,7.0 L 144.317727274,7.0 L 144.317727274,7.0 L 153.682272726,7.0 L 153.682272726,7.0 L 162.772272728,7.0 L 162.772272728,7.0 L 172.136818181,7.0 L 172.136818181,7.0 L 181.226818183,7.0 L 181.226818183,7.0 L 190.591363636,7.0 L 190.591363636,7.0 L 199.681363637,7.0 L 199.681363637,7.0 L 209.04590909,7.0 L 209.04590909,7.0 L 218.135909092,7.0 L 218.135909092,7.0 L 227.500454545,7.0 L 227.500454545,7.0 L 236.590454546,7.0 L 236.590454546,7.0 L 245.954999999,7.0 L 245.954999999,7.0 L 255.045000001,7.0 L 255.045000001,7.0 L 264.409545454,7.0 L 264.409545454,7.0 L 273.499545455,7.0 L 273.499545455,7.0 L 282.864090908,7.0 L 282.864090908,7.0 L 291.95409091,7.0 L 291.95409091,7.0 L 301.318636363,7.0 L 301.318636363,7.0 L 310.408636364,7.0 L 310.408636364,7.0 L 319.773181817,7.0 L 319.773181817,7.0 L 328.863181819,7.0 L 328.863181819,7.0 L 338.227727272,7.0 L 338.227727272,7.0 L 347.317727274,7.0 L 347.317727274,7.0 L 356.682272726,7.0 L 356.682272726,7.0 L 365.772272728,7.0 L 365.772272728,7.0 L 375.136818181,7.0 L 375.136818181,7.0 L 384.226818183,7.0 L 384.226818183,7.0 L 393.591363636,7.0 L 393.591363636,7.0 L 402.681363637,7.0 L 402.681363637,7.0 L 412.04590909,7.0 L 412.04590909,7.0 L 421.135909092,7.0 L 421.135909092,7.0 L 430.500454545,7.0 L 430.500454545,7.0 L 439.590454546,7.0 L 439.590454546,7.0 L 448.954999999,7.0 L 448.954999999,7.0 L 458.045000001,7.0 L 458.045000001,7.0 L 467.409545454,7.0 L 467.409545454,7.0 L 476.499545455,7.0 L 476.499545455,7.0 L 485.864090908,7.0 L 485.864090908,7.0 L 494.95409091,7.0 L 494.95409091,7.0 L 504.318636363,7.0 L 504.318636363,7.0 L 513.408636364,7.0 L 513.408636364,7.0 L 522.773181817,7.0 L 522.773181817,7.0 L 531.863181819,7.0 L 531.863181819,7.0 L 541.227727272,7.0 L 541.227727272,7.0 L 550.317727274,7.0 L 550.317727274,7.0 L 559.682272726,7.0 L 559.682272726,7.0 L 568.772272728,7.0 L 568.772272728,7.0 L 578.136818181,7.0 L 578.136818181,7.0 L 587.226818183,7.0 L 587.226818183,7.0 L 596.591363636,7.0 L 596.591363636,7.0 L 605.681363637,7.0 L 605.681363637,7.0 L 615.04590909,7.0 L 615.04590909,7.0 L 624.135909092,7.0 L 624.135909092,7.0 L 633.500454545,7.0 L 633.500454545,7.0 L 642.590454546,7.0 L 642.590454546,7.0 L 652.0,7.0 " />
    <path
       id="path82"
       inkscape:label="part"
       style="stroke:#000000;stroke-width:1;fill:none"
       d="M 652.0,7.0 L 652.0,11.7116666675 L 646.0,11.7116666675 L 646.0,20.6216666658 L 652.0,20.6216666658 L 652.0,31.3783333342 L 646.0,31.3783333342 L 646.0,40.2883333325 L 652.0,40.2883333325 L 652.0,45.0 " />
    <path
       id="path84"
       inkscape:label="part"
       style="stroke:#000000;stroke-width:1;fill:none"
       d="M 652.0,45.0 L 642.590454546,45.0 L 642.590454546,51.0 L 633.500454545,51.0 L 633.500454545,45.0 L 624.135909092,45.0 L 624.135909092,51.0 L 615.04590909,51.0 L 615.04590909,45.0 L 605.681363637,45.0 L 605.681363637,51.0 L 596.591363636,51.0 L 596.591363636,45.0 L 587.226818183,45.0 L 587.226818183,51.0 L 578.136818181,51.0 L 578.136818181,45.0 L 568.772272728,45.0 L 568.772272728,51.0 L 559.682272726,51.0 L 559.682272726,45.0 L 550.317727274,45.0 L 550.317727274,51.0 L 541.227727272,51.0 L 541.227727272,45.0 L 531.863181819,45.0 L 531.863181819,51.0 L 522.773181817,51.0 L 522.773181817,45.0 L 513.408636364,45.0 L 513.408636364,51.0 L 504.318636363,51.0 L 504.318636363,45.0 L 494.95409091,45.0 L 494.95409091,51.0 L 485.864090908,51.0 L 485.864090908,45.0 L 476.499545455,45.0 L 476.499545455,51.0 L 467.409545454,51.0 L 467.409545454,45.0 L 458.045000001,45.0 L 458.045000001,51.0 L 448.954999999,51.0 L 448.954999999,45.0 L 439.590454546,45.0 L 439.590454546,51.0 L 430.500454545,51.0 L 430.500454545,45.0 L 421.135909092,45.0 L 421.135909092,51.0 L 412.04590909,51.0 L 412.04590909,45.0 L 402.681363637,45.0 L 402.681363637,51.0 L 393.591363636,51.0 L 393.591363636,45.0 L 384.226818183,45.0 L 384.226818183,51.0 L 375.136818181,51.0 L 375.136818181,45.0 L 365.772272728,45.0 L 365.772272728,51.0 L 356.682272726,51.0 L 356.682272726,45.0 L 347.317727274,45.0 L 347.317727274,51.0 L 338.227727272,51.0 L 338.227727272,45.0 L 328.863181819,45.0 L 328.863181819,51.0 L 319.773181817,51.0 L 319.773181817,45.0 L 310.408636364,45.0 L 310.408636364,51.0 L 301.318636363,51.0 L 301.318636363,45.0 L 291.95409091,45.0 L 291.95409091,51.0 L 282.864090908,51.0 L 282.864090908,45.0 L 273.499545455,45.0 L 273.499545455,51.0 L 264.409545454,51.0 L 264.409545454,45.0 L 255.045000001,45.0 L 255.045000001,51.0 L 245.954999999,51.0 L 245.954999999,45.0 L 236.590454546,45.0 L 236.590454546,51.0 L 227.500454545,51.0 L 227.500454545,45.0 L 218.135909092,45.0 L 218.135909092,51.0 L 209.04590909,51.0 L 209.04590909,45.0 L 199.681363637,45.0 L 199.681363637,51.0 L 190.591363636,51.0 L 190.591363636,45.0 L 181.226818183,45.0 L 181.226818183,51.0 L 172.136818181,51.0 L 172.136818181,45.0 L 162.772272728,45.0 L 162.772272728,51.0 L 153.682272726,51.0 L 153.682272726,45.0 L 144.317727274,45.0 L 144.317727274,51.0 L 135.227727272,51.0 L 135.227727272,45.0 L 125.863181819,45.0 L 125.863181819,51.0 L 116.773181817,51.0 L 116.773181817,45.0 L 107.408636364,45.0 L 107.408636364,51.0 L 98.3186363628,51.0 L 98.3186363628,45.0 L 88.9540909099,45.0 L 88.9540909099,51.0 L 79.8640909082,51.0 L 79.8640909082,45.0 L 70.4995454554,45.0 L 70.4995454554,51.0 L 61.4095454537,51.0 L 61.4095454537,45.0 L 52.0,45.0 " />
    <path
       id="path86"
       inkscape:label="part"
       style="stroke:#000000;stroke-width:1;fill:none"
       d="M 52.0,45.0 L 52.0,40.2883333325 L 58.0,40.2883333325 L 58.0,31.3783333342 L 52.0,31.3783333342 L 52.0,20.6216666658 L 58.0,20.6216666658 L 58.0,11.7116666675 L 52.0,11.7116666675 L 52.0,7.0 " />
  </g>
  <g
     id="g89"
     inkscape:groupmode="layer"
     inkscape:label="newlayer" />
</svg>
