<?xml version="1.0" encoding="UTF-8" standalone="no"?>
<!-- Created with Inkscape (http://www.inkscape.org/) -->

<svg
   xmlns:dc="http://purl.org/dc/elements/1.1/"
   xmlns:cc="http://creativecommons.org/ns#"
   xmlns:rdf="http://www.w3.org/1999/02/22-rdf-syntax-ns#"
   xmlns:svg="http://www.w3.org/2000/svg"
   xmlns="http://www.w3.org/2000/svg"
   xmlns:sodipodi="http://sodipodi.sourceforge.net/DTD/sodipodi-0.dtd"
   xmlns:inkscape="http://www.inkscape.org/namespaces/inkscape"
   width="210mm"
   height="297mm"
   viewBox="0 0 210 297"
   version="1.1"
   id="svg8"
   inkscape:version="0.92.1 r15371"
   sodipodi:docname="housing.svg">
  <defs
     id="defs2" />
  <sodipodi:namedview
     id="base"
     pagecolor="#ffffff"
     bordercolor="#666666"
     borderopacity="1.0"
     inkscape:pageopacity="0.0"
     inkscape:pageshadow="2"
     inkscape:zoom="0.35"
     inkscape:cx="3508.2132"
     inkscape:cy="4534.4207"
     inkscape:document-units="mm"
     inkscape:current-layer="layer1"
     showgrid="false"
     showborder="false"
     inkscape:measure-start="2015.71,4374.29"
     inkscape:measure-end="2031.43,4240"
     inkscape:snap-nodes="false"
     inkscape:snap-others="false"
     inkscape:window-width="1440"
     inkscape:window-height="801"
     inkscape:window-x="0"
     inkscape:window-y="28"
     inkscape:window-maximized="1" />
  <metadata
     id="metadata5">
    <rdf:RDF>
      <cc:Work
         rdf:about="">
        <dc:format>image/svg+xml</dc:format>
        <dc:type
           rdf:resource="http://purl.org/dc/dcmitype/StillImage" />
        <dc:title></dc:title>
      </cc:Work>
    </rdf:RDF>
  </metadata>
  <g
     inkscape:label="Layer 1"
     inkscape:groupmode="layer"
     id="layer1">
    <text
       xml:space="preserve"
       style="font-style:normal;font-variant:normal;font-weight:normal;font-stretch:normal;font-size:5.64444447px;line-height:125%;font-family:Carlito;-inkscape-font-specification:Carlito;letter-spacing:0px;word-spacing:0px;fill:#000000;fill-opacity:1;stroke:none;stroke-width:0.26458332px;stroke-linecap:butt;stroke-linejoin:miter;stroke-opacity:1"
       x="864.88422"
       y="-131.70032"
       id="text4829"><tspan
         sodipodi:role="line"
         id="tspan4827"
         x="864.88422"
         y="-131.70032"
         style="font-size:25.39999962px;stroke-width:0.26458332px">Perspex Shapes</tspan></text>
    <rect
       style="color:#000000;display:inline;overflow:visible;visibility:visible;opacity:1;vector-effect:none;fill:#ff0000;fill-opacity:1;fill-rule:nonzero;stroke:#999999;stroke-width:0.16693261;stroke-linecap:butt;stroke-linejoin:miter;stroke-miterlimit:4;stroke-dasharray:none;stroke-dashoffset:0;stroke-opacity:1;marker:none;paint-order:markers fill stroke;enable-background:accumulate"
       id="rect4831"
       width="296.83307"
       height="419.83307"
       x="467.56915"
       y="718.67639"
       transform="rotate(-90)" />
    <text
       xml:space="preserve"
       style="font-style:normal;font-variant:normal;font-weight:normal;font-stretch:normal;font-size:5.64444447px;line-height:125%;font-family:Carlito;-inkscape-font-specification:Carlito;letter-spacing:0px;word-spacing:0px;fill:#000000;fill-opacity:1;stroke:none;stroke-width:0.26458332px;stroke-linecap:butt;stroke-linejoin:miter;stroke-opacity:1"
       x="807.37231"
       y="-442.3266"
       id="text4829-7"><tspan
         sodipodi:role="line"
         id="tspan4827-0"
         x="807.37231"
         y="-442.3266"
         style="font-size:25.39999962px;stroke-width:0.26458332px">Fit onto A3 arcylic sheet</tspan><tspan
         sodipodi:role="line"
         x="807.37231"
         y="-435.27106"
         style="font-size:25.39999962px;stroke-width:0.26458332px"
         id="tspan4874" /><tspan
         sodipodi:role="line"
         x="807.37231"
         y="-423.27661"
         style="font-size:25.39999962px;stroke-width:0.26458332px"
         id="tspan4876">5mm thickness opal translucent</tspan></text>
    <path
       id="path4558-7-9-1-9-7-5"
       style="fill:#ff0000;fill-opacity:1;fill-rule:evenodd;stroke:#000000;stroke-width:0.36098519;stroke-opacity:1"
       d="m 1156.4373,-952.63509 c 3.8286,15.7145 3.6722,32.2541 6.212,48.2367 12.649,7.1489 25.7344,13.5774 38.5525,20.4472 2.7012,1.9949 9.7868,3.3192 7.2796,7.8226 -14.9519,8.552 -32.0874,13.5601 -47.7327,21.0491 -3.333,10.6689 -4.7784,21.6757 -7.1662,32.5479 -2.4542,5.9565 -0.2231,14.7949 -7.6569,18.0282 -12.3779,-12.0404 -23.6355,-25.0485 -36.0224,-37.0808 -14.0299,0.7498 -27.8927,3.1843 -41.8649,4.3787 -4.1945,0.7199 -11.6216,2.4822 -12.3653,-3.5173 7.4844,-14.4922 16.965,-27.948 25.1881,-42.0596 -4.7779,-10.6631 -12.3005,-24.3039 -17.3998,-34.831 v 0 c -0.2017,-0.3553 -0.9275,1.1369 -1.0869,1.7903 -1.1867,4.8621 9.2562,32.0733 8.4207,39.1535 -0.1183,1.0029 -13.3877,1.4889 -13.8332,1.7925 -0.4551,0.3102 -0.9455,0.1811 -1.6743,0.183 -12.6868,0.033 -25.7666,-1.7027 -38.5719,-2.3115 -94.68842,-4.9207 -190.53684,-5.5345 -284.16333,10.1418 -6.22289,-0.2042 -12.64154,4.5863 -18.64573,1.5939 -6.34241,-11.2053 -8.93585,-24.4045 -13.416,-36.4805 -0.65291,-5.3951 -6.54564,-11.2883 -2.61547,-16.5952 27.7725,-8.0431 57.02533,-9.977 85.92552,-10.3441 6.07783,-0.029 12.15632,0.034 18.23159,0.2054 82.84349,2.9087 164.45655,20.0016 243.46652,42.9153 0.2166,0.063 0.4482,0.1716 0.626,0.1436 0.16,-0.026 0.4325,-0.2942 0.4325,-0.2942 l 5.9351,-4.9273 c 0,0 0.2665,-0.1852 0.2706,-0.5877 0,-0.4086 -0.567,-0.418 -1.2431,-0.5251 -6.7436,-1.068 -13.3222,-4.9469 -19.8885,-7.0851 -98.6306,-36.0714 -215.66323,-53.9529 -329.57952,-43.4361 -7.66346,-0.076 -15.1764,4.8205 -22.7572,2.1242 -5.22427,-14.1971 -9.8849,-28.5677 -14.63612,-42.9094 -0.53196,-4.9113 -6.05408,-10.794 -1.4935,-15.2539 17.48569,-3.65601 36.06453,-3.03761 54.03778,-3.04711 117.73964,3.57131 231.19788,43.45311 331.60846,99.72501 1.0028,0.4735 0.9726,-0.5571 0.8182,-0.7367 l -7.6352,-13.9255 c -12.0674,-9.8293 -24.7413,-19.8121 -38.4779,-27.9168 -71.89181,-42.8442 -156.54045,-61.94421 -240.44049,-69.61841 -22.66951,-2.6328 -45.59562,-2.1456 -68.3025,-4.4185 -1.16559,-15.2794 -0.99955,-30.6077 -1.46716,-45.9119 0.46238,-3.8787 -2.22396,-10.8586 3.91837,-11.9192 1.897,-0.081 3.8261,0.1632 5.73007,0.1975 76.0438,5.0048 153.49085,15.418 222.97913,46.5299 50.21925,21.8152 92.95468,58.66321 119.66748,104.30621 0.1273,0.2174 0.179,0.4468 0.3807,0.5627 0.205,0.1177 0.7176,0.062 0.7176,0.062 l 12.8121,-0.5021 c 0,0 0.505,-0.035 0.6606,-0.1959 0.1431,-0.1477 0.1807,-0.3404 0.135,-0.5862 -0.3729,-2.0083 0.1706,-3.855 2.6159,-5.2968 16.7896,1.6766 33.5366,6.6794 50.3157,9.4111 6.602,-4.8351 12.471,-10.4672 18.6026,-15.8042 7.3282,-5.267 12.7882,-13.1898 21.2483,-16.8021 l 2.661,-5.9383 -103.1552,17.9626 -19.5187,-28.2109 -88.76636,-60.10001 -62.30512,-25.5279 c -65.33908,-23.5108 -190.39509,-25.673 -190.39509,-25.673 l -34.61568,81.69921 c 0,0 3.63865,20.4676 5.95775,30.593 14.5508,41.7868 21.77219,72.9644 40.20088,111.8521 l 327.48582,-1.1399 19.8406,21.8065 c 4.4898,8.0264 15.6467,6.8297 23.4766,4.868 11.1719,-1.2271 22.2992,-2.8448 33.517,-3.6751 12.618,12.3997 24.0536,25.9076 37.0811,37.8955 10.7495,-2.1422 14.4267,-14.0385 14.8664,-23.1256 2.1968,-10.0494 3.7189,-20.2347 6.4461,-30.1783 15.9952,-8.5215 36.1525,-10.9711 48.7985,-24.3361 0.5714,-2.9556 -0.2189,-5.436 -1.7874,-7.5379 -3.1283,-4.1919 -9.3522,-6.8787 -14.0445,-8.8303 l -27.9461,-17.9619 -9.6319,-51.8532 z"
       inkscape:connector-curvature="0"
       sodipodi:nodetypes="ccccccccccccccssascccccccssccssccccccccccccccccsaccasccccccccccccccccccccscccc" />
    <rect
       style="color:#000000;display:inline;overflow:visible;visibility:visible;opacity:1;vector-effect:none;fill:none;fill-opacity:1;fill-rule:nonzero;stroke:#ff0000;stroke-width:5.86100435;stroke-linecap:butt;stroke-linejoin:miter;stroke-miterlimit:4;stroke-dasharray:none;stroke-dashoffset:0;stroke-opacity:1;marker:none;paint-order:markers fill stroke;enable-background:accumulate"
       id="rect4550-9-0"
       width="566.54248"
       height="294.05594"
       x="652.64819"
       y="-1086.7661" />
    <path
       inkscape:connector-curvature="0"
       id="path4558-7-9-6-6"
       style="fill:#f0cb8e;stroke-width:0.36098519"
       d="m 1042.8164,-919.90959 c -10.2096,-10.0053 -31.9732,-24.8717 -52.64691,-35.962 -11.36971,-6.0991 -24.8108,-12.3935 -38.32235,-17.9462 -66.55018,-27.34901 -147.81633,-42.93311 -239.42224,-45.91321 -6.95757,-0.2264 -12.75225,-0.5113 -12.87704,-0.633 -0.23985,-0.234 -1.43283,-50.5501 -1.20454,-50.8035 0.37276,-0.4135 31.87642,1.9411 48.86938,3.6523 82.39874,8.2986 148.5796,25.832 197.76921,52.3953 42.04026,22.70241 73.38989,52.26541 97.08179,91.54921 2.7885,4.6237 3.0544,5.9167 0.7527,3.6611 z m 9.1628,25.69 c -0.4993,-0.1696 -4.0041,-1.5769 -7.7885,-3.1272 -33.9368,-13.9028 -80.31147,-27.1549 -126.2358,-36.0735 -33.062,-6.4207 -62.55446,-10.5175 -96.92738,-13.4637 -11.33893,-0.972 -55.8898,-2.4329 -65.17837,-2.1369 -28.84683,0.9179 -50.35525,3.0191 -68.40836,6.6832 -2.01615,0.4092 -3.79749,0.611 -3.95853,0.4484 -0.16106,-0.1625 -4.1955,-11.9196 -8.96543,-26.1268 -6.70514,-19.9713 -8.56066,-25.8914 -8.17906,-26.0965 0.27146,-0.1458 1.75633,-0.4019 3.29972,-0.5689 29.7322,-3.2173 65.21703,-2.4116 103.07615,2.34 81.6092,10.2427 167.60134,38.3012 250.82516,81.8425 12.4866,6.5329 28.6465,15.4716 29.2088,16.1566 0.2258,0.2751 0.3495,0.4847 0.2749,0.4659 -0.075,-0.019 -0.5441,-0.1729 -1.0434,-0.3426 z m -342.8599,3.9433 c -4.3455,-12.8881 -7.84469,-23.5885 -7.77599,-23.7788 0.14101,-0.3904 12.51893,-3.2199 19.76662,-4.5184 38.19762,-6.8435 87.59948,-7.0088 142.92815,-0.4782 45.74219,5.3992 97.18988,15.4419 148.99072,29.0837 19.7213,5.1936 43.7235,12.1999 43.7235,12.7631 0,0.4111 1.3518,0.4752 -11.1528,-0.5281 -77.25581,-6.1976 -168.63131,-6.6634 -235.94024,-1.2024 -32.03706,2.5991 -60.97218,6.3333 -85.5754,11.0434 -3.01226,0.5767 -5.83387,1.0485 -6.27025,1.0485 -0.72738,0 -1.45097,-1.9503 -8.69431,-23.4328 z m 420.9423,63.857 c -16.5252,-17.3766 -17.3153,-18.15 -18.5388,-18.15 -0.7029,0 -12.0704,1.245 -25.2611,2.7668 -13.1906,1.5218 -24.3363,2.767 -24.7682,2.767 -0.5682,0 -0.7379,-0.1673 -0.614,-0.6052 0.094,-0.333 5.7882,-9.7104 12.6533,-20.8388 6.8651,-11.1285 12.5927,-20.5147 12.7279,-20.8583 0.1669,-0.4241 -3.2454,-7.6659 -10.6246,-22.5479 -5.9787,-12.0577 -10.7581,-22.0942 -10.6208,-22.3033 0.1373,-0.2092 0.525,-0.2998 0.8616,-0.2016 0.3367,0.098 2.9269,0.6381 5.7561,1.1997 6.4082,1.2721 25.049,5.0396 35.2085,7.1162 4.2085,0.8602 8.0518,1.564 8.5408,1.564 0.6654,0 5.5716,-4.1123 19.4983,-16.3426 10.235,-8.9883 18.8242,-16.391 19.0869,-16.4504 0.6453,-0.1459 0.543,-0.918 3.2899,24.8379 1.3288,12.4601 2.555,22.9659 2.7248,23.3464 0.1975,0.4424 8.4627,4.93 22.9321,12.4513 12.4428,6.4678 22.6281,11.8485 22.6341,11.9571 0.01,0.1086 -5.9001,2.66 -13.1246,5.6699 -7.2245,3.0098 -17.7649,7.4025 -23.4233,9.7616 -5.6583,2.3592 -10.5533,4.5549 -10.8777,4.8793 -0.3977,0.398 -1.695,5.9932 -3.9857,17.1918 -5.2971,25.8945 -6.3771,30.9561 -6.6038,30.9474 -0.116,-0.01 -7.9782,-8.1757 -17.4717,-18.1583 z" />
    <path
       inkscape:connector-curvature="0"
       id="path4558-7-9-6-6-1"
       style="fill:#f0cb8e;stroke-width:0.36098522"
       d="m 1024.9995,-275.01724 c -10.2095,-10.0053 -31.97324,-24.8717 -52.64694,-35.962 -11.3697,-6.0991 -24.8108,-12.39352 -38.3223,-17.94622 -66.5502,-27.349 -147.81636,-42.9331 -239.42227,-45.9132 -6.95757,-0.2264 -12.75225,-0.5113 -12.87704,-0.633 -0.23985,-0.234 -1.43283,-50.5501 -1.20454,-50.8035 0.37276,-0.4135 31.87642,1.9411 48.86938,3.6523 82.39874,8.2986 148.57957,25.832 197.76917,52.3953 42.0403,22.7024 73.38994,52.26542 97.08184,91.54922 2.7885,4.6237 3.0544,5.9167 0.7527,3.6611 z m 9.1628,25.69 c -0.4992,-0.1696 -4.004,-1.5769 -7.7884,-3.1272 -33.93694,-13.9028 -80.31154,-27.1549 -126.23594,-36.0735 -33.062,-6.4207 -62.5544,-10.5175 -96.92735,-13.4637 -11.33893,-0.972 -55.8898,-2.4329 -65.17837,-2.1369 -28.84683,0.9179 -50.35525,3.0191 -68.40836,6.6832 -2.01615,0.4092 -3.79749,0.611 -3.95853,0.4484 -0.16106,-0.1625 -4.1955,-11.9196 -8.96543,-26.12682 -6.70514,-19.9713 -8.56066,-25.8914 -8.17906,-26.0965 0.27146,-0.1458 1.75633,-0.4019 3.29972,-0.5689 29.7322,-3.2173 65.21703,-2.4116 103.07615,2.34 81.60923,10.2427 167.60133,38.30122 250.82527,81.84252 12.4866,6.5329 28.6465,15.4716 29.2087,16.1566 0.2258,0.2751 0.3495,0.4847 0.2749,0.4659 -0.075,-0.019 -0.5441,-0.1729 -1.0433,-0.3426 z m -342.85991,3.9433 c -4.3455,-12.8881 -7.84469,-23.5885 -7.77599,-23.7788 0.14101,-0.3904 12.51893,-3.2199 19.76662,-4.5184 38.19762,-6.8435 87.59948,-7.0088 142.92814,-0.4782 45.7422,5.3992 97.1899,15.4419 148.9907,29.0837 19.72134,5.1936 43.72354,12.1999 43.72354,12.7631 0,0.4111 1.3518,0.4752 -11.1528,-0.5281 -77.25584,-6.1976 -168.63134,-6.6634 -235.94025,-1.2024 -32.03706,2.5991 -60.97218,6.3333 -85.5754,11.0434 -3.01226,0.5767 -5.83387,1.0485 -6.27025,1.0485 -0.72738,0 -1.45097,-1.9503 -8.69431,-23.4328 z m 420.94241,63.857 c -16.5253,-17.3766 -17.3154,-18.15 -18.5389,-18.15 -0.7029,0 -12.0704,1.245 -25.2611,2.7668 -13.1906,1.5218 -24.3363,2.767 -24.7682,2.767 -0.5681,0 -0.7379,-0.1673 -0.614,-0.6052 0.094,-0.333 5.7882,-9.7104 12.6533,-20.8388 6.8651,-11.1285 12.5927,-20.5147 12.7279,-20.8583 0.1669,-0.4241 -3.2454,-7.6659 -10.6246,-22.5479 -5.9787,-12.0577 -10.7581,-22.0942 -10.6208,-22.3033 0.1373,-0.2092 0.525,-0.2998 0.8617,-0.2016 0.3366,0.098 2.9268,0.6381 5.756,1.1997 6.4082,1.2721 25.049,5.0396 35.2085,7.1162 4.2085,0.8602 8.0519,1.564 8.5409,1.564 0.6653,0 5.5715,-4.1123 19.4982,-16.3426 10.235,-8.9883 18.8242,-16.391 19.087,-16.4504 0.6452,-0.1459 0.5429,-0.918 3.2898,24.8379 1.3288,12.4601 2.5551,22.9659 2.7248,23.3464 0.1975,0.4424 8.4627,4.93 22.9322,12.4513 12.4427,6.4678 22.6281,11.8485 22.634,11.9571 0.01,0.1086 -5.9001,2.66 -13.1246,5.6699 -7.2244,3.0098 -17.7649,7.4025 -23.4232,9.7616 -5.6584,2.3592 -10.5534,4.5549 -10.8778,4.8793 -0.3977,0.398 -1.6949,5.9932 -3.9857,17.1918 -5.2971,25.8945 -6.3771,30.9561 -6.6038,30.9474 -0.116,-0.01 -7.9782,-8.1757 -17.4716,-18.1583 z" />
    <path
       style="fill:#f0cb8e;stroke-width:0.36098525"
       d="m 1092.6589,-510.18332 c -10.2095,-10.0053 -31.9733,-24.8717 -52.647,-35.962 -11.3697,-6.09906 -24.8108,-12.39356 -38.3223,-17.94626 -66.5502,-27.349 -147.8163,-42.9331 -239.42224,-45.9132 -6.95757,-0.2264 -12.75225,-0.5113 -12.87704,-0.633 -0.23985,-0.234 -1.43283,-50.5501 -1.20454,-50.8035 0.37276,-0.4135 31.87642,1.9411 48.86938,3.6523 82.39874,8.2986 148.57954,25.832 197.76914,52.3953 42.0403,22.7024 73.39,52.2655 97.0819,91.54926 2.7885,4.6237 3.0544,5.9167 0.7527,3.6611 z"
       id="path5270"
       inkscape:connector-curvature="0" />
    <path
       style="fill:#f0cb8e;stroke-width:0.36098525"
       d="m 1110.8931,-486.00522 c -0.4992,-0.1696 -4.004,-1.5769 -7.7884,-3.1272 -33.937,-13.9028 -80.3116,-27.1549 -126.23597,-36.0735 -33.062,-6.4207 -62.5544,-10.5175 -96.9273,-13.4637 -11.3389,-0.972 -55.8898,-2.4329 -65.17839,-2.1369 -28.84683,0.9179 -50.35525,3.0191 -68.40836,6.6832 -2.01615,0.4092 -3.79749,0.611 -3.95853,0.4484 -0.16106,-0.1625 -4.1955,-11.9196 -8.96543,-26.12686 -6.70514,-19.9713 -8.56066,-25.8914 -8.17906,-26.0965 0.27146,-0.1458 1.75633,-0.4019 3.29972,-0.5689 29.7322,-3.2173 65.21703,-2.4116 103.07615,2.34 81.6092,10.2427 167.6013,38.30126 250.82527,81.84256 12.4866,6.5329 28.6465,15.4716 29.2087,16.1566 0.2258,0.2751 0.3495,0.4847 0.2749,0.4659 -0.075,-0.019 -0.5441,-0.1729 -1.0433,-0.3426 z"
       id="path5268"
       inkscape:connector-curvature="0" />
    <path
       style="fill:#f0cb8e;stroke-width:0.36098525"
       d="m 730.23557,-497.18097 c -4.3455,-12.8881 -7.84469,-23.5885 -7.77599,-23.7788 0.14101,-0.3904 12.51893,-3.2199 19.76662,-4.5184 38.19762,-6.8435 87.59951,-7.0088 142.92811,-0.4782 45.7422,5.3992 97.1899,15.4419 148.99069,29.0837 19.7214,5.1936 43.7236,12.1999 43.7236,12.7631 0,0.4111 1.3518,0.4752 -11.1528,-0.5281 -77.25589,-6.1976 -168.63139,-6.6634 -235.94029,-1.2024 -32.037,2.5991 -60.97216,6.3333 -85.57538,11.0434 -3.01226,0.5767 -5.83387,1.0485 -6.27025,1.0485 -0.72738,0 -1.45097,-1.9503 -8.69431,-23.4328 z"
       id="path5266"
       inkscape:connector-curvature="0" />
    <path
       style="fill:#f0cb8e;stroke-width:0.36098525"
       d="m 1054.4161,-623.82397 c -16.5253,-17.3766 -17.3154,-18.15 -18.5389,-18.15 -0.7029,0 -12.0704,1.245 -25.2611,2.7668 -13.1906,1.5218 -24.3363,2.767 -24.7682,2.767 -0.5681,0 -0.7379,-0.1673 -0.614,-0.6052 0.094,-0.333 5.7882,-9.7104 12.6533,-20.8388 6.8651,-11.1285 12.5927,-20.5147 12.7279,-20.8583 0.1669,-0.4241 -3.2454,-7.6659 -10.6246,-22.5479 -5.9787,-12.0577 -10.7581,-22.0942 -10.6208,-22.3033 0.1373,-0.2092 0.525,-0.2998 0.8617,-0.2016 0.3366,0.098 2.9268,0.6381 5.756,1.1997 6.4082,1.2721 25.049,5.0396 35.2085,7.1162 4.2085,0.8602 8.0519,1.564 8.5409,1.564 0.6653,0 5.5715,-4.1123 19.4982,-16.3426 10.235,-8.9883 18.8242,-16.391 19.087,-16.4504 0.6452,-0.1459 0.5429,-0.918 3.2898,24.8379 1.3288,12.4601 2.5551,22.9659 2.7248,23.3464 0.1975,0.4424 8.4627,4.93 22.9322,12.4513 12.4427,6.4678 22.6281,11.8485 22.634,11.9571 0.01,0.1086 -5.9001,2.66 -13.1246,5.6699 -7.2244,3.0098 -17.7649,7.4025 -23.4232,9.7616 -5.6584,2.3592 -10.5534,4.5549 -10.8778,4.8793 -0.3977,0.398 -1.6949,5.9932 -3.9857,17.1918 -5.2971,25.8945 -6.3771,30.9561 -6.6038,30.9474 -0.116,-0.01 -7.9782,-8.1757 -17.4716,-18.1583 z"
       id="path4558-7-9-6-6-1-5"
       inkscape:connector-curvature="0" />
  </g>
</svg>
