<?xml version="1.0" encoding="UTF-8" standalone="no"?>
<!-- Created with Inkscape (http://www.inkscape.org/) -->

<svg
   xmlns:dc="http://purl.org/dc/elements/1.1/"
   xmlns:cc="http://creativecommons.org/ns#"
   xmlns:rdf="http://www.w3.org/1999/02/22-rdf-syntax-ns#"
   xmlns:svg="http://www.w3.org/2000/svg"
   xmlns="http://www.w3.org/2000/svg"
   xmlns:sodipodi="http://sodipodi.sourceforge.net/DTD/sodipodi-0.dtd"
   xmlns:inkscape="http://www.inkscape.org/namespaces/inkscape"
   sodipodi:docname="housing.svg"
   inkscape:version="0.92.3 (2405546, 2018-03-11)"
   id="svg8"
   version="1.1"
   viewBox="0 0 210 297"
   height="297mm"
   width="210mm">
  <sodipodi:namedview
     inkscape:window-maximized="1"
     inkscape:window-y="-8"
     inkscape:window-x="-8"
     inkscape:window-height="1018"
     inkscape:window-width="1920"
     inkscape:snap-others="false"
     inkscape:snap-nodes="false"
     inkscape:measure-end="4605.71,3951.43"
     inkscape:measure-start="4605.71,5230"
     showborder="false"
     showgrid="false"
     inkscape:current-layer="layer1"
     inkscape:document-units="mm"
     inkscape:cy="3623.151"
     inkscape:cx="1901.5094"
     inkscape:zoom="0.35000001"
     inkscape:pageshadow="2"
     inkscape:pageopacity="0.0"
     borderopacity="1.0"
     bordercolor="#666666"
     pagecolor="#ffffff"
     id="base"
     inkscape:snap-center="true"
     inkscape:object-nodes="false"
     inkscape:object-paths="true"
     showguides="true"
     inkscape:guide-bbox="true">
    <sodipodi:guide
       position="426.56215,323.93067"
       orientation="0,1"
       id="guide692"
       inkscape:locked="false" />
  </sodipodi:namedview>
  <defs
     id="defs2" />
  <metadata
     id="metadata5">
    <rdf:RDF>
      <cc:Work
         rdf:about="">
        <dc:format>image/svg+xml</dc:format>
        <dc:type
           rdf:resource="http://purl.org/dc/dcmitype/StillImage" />
        <dc:title />
      </cc:Work>
    </rdf:RDF>
  </metadata>
  <g
     inkscape:label="Layer 1"
     inkscape:groupmode="layer"
     id="layer1">
    <text
       xml:space="preserve"
       style="font-style:normal;font-variant:normal;font-weight:normal;font-stretch:normal;font-size:5.64444447px;line-height:125%;font-family:Carlito;-inkscape-font-specification:Carlito;letter-spacing:0px;word-spacing:0px;fill:#000000;fill-opacity:1;stroke:none;stroke-width:0.26458332px;stroke-linecap:butt;stroke-linejoin:miter;stroke-opacity:1"
       x="864.88422"
       y="-131.70032"
       id="text4829"><tspan
         sodipodi:role="line"
         id="tspan4827"
         x="864.88422"
         y="-131.70032"
         style="font-size:25.39999962px;stroke-width:0.26458332px">Perspex Shapes</tspan></text>
    <rect
       style="color:#000000;display:inline;overflow:visible;visibility:visible;opacity:1;vector-effect:none;fill:#ff0000;fill-opacity:1;fill-rule:nonzero;stroke:#999999;stroke-width:0.16693261;stroke-linecap:butt;stroke-linejoin:miter;stroke-miterlimit:4;stroke-dasharray:none;stroke-dashoffset:0;stroke-opacity:1;marker:none;paint-order:markers fill stroke;enable-background:accumulate"
       id="rect4831"
       width="296.83307"
       height="419.83307"
       x="467.56915"
       y="718.67639"
       transform="rotate(-90)" />
    <text
       xml:space="preserve"
       style="font-style:normal;font-variant:normal;font-weight:normal;font-stretch:normal;font-size:5.64444447px;line-height:125%;font-family:Carlito;-inkscape-font-specification:Carlito;letter-spacing:0px;word-spacing:0px;fill:#000000;fill-opacity:1;stroke:none;stroke-width:0.26458332px;stroke-linecap:butt;stroke-linejoin:miter;stroke-opacity:1"
       x="807.37231"
       y="-442.3266"
       id="text4829-7"><tspan
         sodipodi:role="line"
         id="tspan4827-0"
         x="807.37231"
         y="-442.3266"
         style="font-size:25.39999962px;stroke-width:0.26458332px">Fit onto A3 arcylic sheet</tspan><tspan
         sodipodi:role="line"
         x="807.37231"
         y="-435.27106"
         style="font-size:25.39999962px;stroke-width:0.26458332px"
         id="tspan4874" /><tspan
         sodipodi:role="line"
         x="807.37231"
         y="-423.27661"
         style="font-size:25.39999962px;stroke-width:0.26458332px"
         id="tspan4876">5mm thickness opal translucent</tspan></text>
    <path
       sodipodi:nodetypes="cccccccccccccccccccccccccsccsccccccccccccccccccccccccccccsccccccccccccccsccccccccccccccccccccccccccccccccccccccccccc"
       inkscape:connector-curvature="0"
       id="path4558-7-9-1-9-7-5"
       transform="scale(0.26458333)"
       d="m 2613.9609,-4088.2949 -8.4277,19.8887 36.6836,0.6621 c 2.9157,0.6622 8.7976,1.2779 14.6191,1.3828 287.4097,18.9158 580.123,58.273 842.7559,175.8613 189.805,82.4511 351.3253,221.7176 452.2871,394.2266 0.4811,0.8216 0.6771,1.6889 1.4395,2.1269 0.7748,0.4449 2.7109,0.2344 2.7109,0.2344 l 48.4238,-1.8965 c 0,0 1.91,-0.1321 2.4981,-0.7402 0.5408,-0.5583 0.6825,-1.2878 0.5097,-2.2168 -0.8123,-4.3752 -27.6148,3.5377 -39.1035,-8.3633 -7.0121,-7.2638 -11.2708,-9.1082 -21.0097,-19.8711 -8.805,-10.5535 -5.6001,-20.6006 0.9628,-26.1758 8.7839,-7.462 41.8295,-11.614 48.1524,-10.5801 10.403,1.7011 17.8032,44.61 29.1191,47.7403 61.5596,17.0289 136.8249,25.4566 181.9356,32.8008 24.9524,-18.2744 47.134,-39.5611 70.3086,-59.7325 27.6971,-19.9067 48.3334,-49.8511 80.3086,-63.5039 l 10.0566,-22.4453 -388.0918,48.9629 -75.5566,-87.6953 -335.4961,-227.1504 -235.4824,-96.4824 c -246.9509,-88.8597 -719.6036,-97.0332 -719.6036,-97.0332 z m 0.5977,42.8496 c -12.9293,0.1717 -47.1985,67.1368 -92.1524,173.2344 h 101.9727 c -5.3016,-106.7844 3.109,-173.4061 -9.8203,-173.2344 z m -101.9219,196.291 -29.5078,69.6445 c 0,0 0.713,3.9474 1.043,5.7871 h 24.9902 c 65.2957,-13.1978 134.5221,-10.9372 201.5254,-10.9726 445.0002,13.4979 873.8197,164.2329 1253.3242,376.9141 3.7901,1.7888 3.6754,-2.1064 3.0918,-2.7852 l -28.8574,-52.6309 c -45.6091,-37.1501 -93.5099,-74.8797 -145.4277,-105.5117 -271.7171,-161.9308 -591.6495,-234.1201 -908.752,-263.125 -85.68,-9.9507 -184.3291,-8.1087 -270.1504,-16.6992 -0.016,-0.207 -30.1715,-0.4141 -30.1875,-0.6211 z m -12.1621,98.4883 8.3223,119.8594 c 6.6399,19.5762 14.8488,44.3444 24.4804,72.7207 l 29.1446,-9.0196 c -17.7439,-49.1761 -33.9014,-98.8411 -50.3262,-148.4199 -1.1968,-11.0491 -5.8908,-24.3593 -11.6211,-35.1406 z m 1888.5234,116.2031 -18.2109,33.9531 c 14.4703,59.3934 13.8793,121.9039 23.4785,182.3106 47.8073,27.0194 97.2626,51.3166 145.709,77.2812 4.0791,3.0125 10.7907,5.6303 16.791,8.7618 l 21.4063,-11.7012 c -12.6975,-12.1353 -32.0256,-20.4485 -47.1485,-26.7383 l -105.623,-67.8867 z m -1492.6835,61.793 c -81.0203,0.1604 -162.1626,3.8401 -242.8907,11.2929 -22.6711,-0.2248 -62.6709,15.6073 -85.041,15.6368 l -27.6523,9.4824 c 9.501,27.6553 20.2103,58.0883 31.9863,90.0527 l 71.7949,-30.7988 c 52.1047,-14.3536 209.8879,-31.6321 317.8848,-33.0039 22.9713,-0.1096 45.9446,0.1276 68.9062,0.7754 313.1093,10.9935 621.5691,75.5962 920.1895,162.1992 0.8186,0.2381 1.6932,0.6488 2.3652,0.543 0.6047,-0.098 1.6348,-1.1114 1.6348,-1.1114 l 22.4316,-18.623 c 0,0 1.008,-0.6995 1.0235,-2.2207 0,-1.5443 -2.1439,-1.5796 -4.6993,-1.9844 -25.4876,-4.0365 -50.3504,-18.6979 -75.1679,-26.7793 -302.8814,-110.7704 -651.6784,-176.1559 -1002.7656,-175.4609 z m 1122.6953,104.3301 c -1.044,0.2134 -3.2092,4.8001 -3.7364,6.9609 -4.4851,18.3764 34.984,121.2226 31.8262,147.9824 -0.4471,3.7905 -50.5994,5.626 -52.2832,6.7735 -1.7201,1.1724 -3.5736,0.6861 -6.3281,0.6933 -47.9501,0.1247 -97.3852,-6.4353 -145.7832,-8.7363 -357.8775,-18.5979 -720.14,-20.9189 -1074.0039,38.3301 -18.3366,-0.6018 -37.121,10.2684 -55.2637,9.7304 l -58.6875,19.4258 c 0.9457,2.0153 1.8856,4.0355 2.8379,6.0449 l 1237.7402,-4.3086 74.9883,82.418 c 1.7772,3.1772 3.8345,5.9668 6.1211,8.416 l 27.9628,-51.1049 c 14.2304,-27.1459 49.8344,-77.7415 80.7442,-130.7857 -18.0582,-40.3015 -46.4907,-91.8571 -65.7636,-131.6445 -0.095,-0.1679 -0.222,-0.2258 -0.3711,-0.1953 z m -1384.836,22.9414 -53.414,20.7988 c 18.9793,50.4809 40.511,104.0459 64.2636,156.3516 l 46.2657,-15.3125 c -19.1085,-39.2858 -28.5683,-83.6674 -43.7657,-124.6309 -1.4556,-12.0281 -9.7972,-24.7104 -13.3496,-37.207 z m 1956.3067,121.0898 -51.113,28.8497 c -28.3903,16.4299 -93.1536,35.3571 -152.2855,63.662 -12.5971,40.3234 -18.0612,81.9239 -27.0859,123.0157 -6.4574,15.6719 -4.3455,36.6173 -11.9375,52.0253 l 15.0215,16.5938 c 12.6811,-17.9461 17.9945,-42.1142 18.9824,-62.5313 8.3029,-37.9819 14.0558,-76.4764 24.3633,-114.0586 60.4543,-32.2072 136.6396,-41.4651 184.4355,-91.9785 1.0893,-5.6342 0.8656,-10.8106 -0.3808,-15.5781 z m -395.5703,143.5176 c -53.0264,2.8339 -105.4222,12.0345 -158.2305,16.5488 -8.3393,1.4313 -20.0557,3.9486 -29.7012,2.7168 l -10.8906,18.9981 c 19.4383,6.2665 43.8236,2.6965 62.959,-2.0977 42.2245,-4.6379 84.2817,-10.7525 126.6797,-13.8906 47.69,46.865 90.9106,97.9179 140.1484,143.2265 7.9276,-1.5798 14.8322,-4.5691 20.832,-8.6035 l -38.8698,-39.5816 c -23.5632,-22.6754 -66.1104,-71.8404 -112.927,-117.3168 z"
       style="fill:#ff0000;fill-opacity:1;fill-rule:evenodd;stroke:#000000;stroke-width:1.36435342;stroke-opacity:1" />
    <path
       inkscape:connector-curvature="0"
       id="rect4550-9-0"
       d="m 649.7168,-1089.6973 v 2.9317 296.9863 h 572.4043 v -299.918 z m 5.86132,5.8614 h 560.68168 v 288.19528 H 655.57812 Z"
       style="color:#000000;font-style:normal;font-variant:normal;font-weight:normal;font-stretch:normal;font-size:medium;line-height:normal;font-family:sans-serif;font-variant-ligatures:normal;font-variant-position:normal;font-variant-caps:normal;font-variant-numeric:normal;font-variant-alternates:normal;font-feature-settings:normal;text-indent:0;text-align:start;text-decoration:none;text-decoration-line:none;text-decoration-style:solid;text-decoration-color:#000000;letter-spacing:normal;word-spacing:normal;text-transform:none;writing-mode:lr-tb;direction:ltr;text-orientation:mixed;dominant-baseline:auto;baseline-shift:baseline;text-anchor:start;white-space:normal;shape-padding:0;clip-rule:nonzero;display:inline;overflow:visible;visibility:visible;opacity:1;isolation:auto;mix-blend-mode:normal;color-interpolation:sRGB;color-interpolation-filters:linearRGB;solid-color:#000000;solid-opacity:1;vector-effect:none;fill:#ff0000;fill-opacity:1;fill-rule:nonzero;stroke:none;stroke-width:5.86100435;stroke-linecap:butt;stroke-linejoin:miter;stroke-miterlimit:4;stroke-dasharray:none;stroke-dashoffset:0;stroke-opacity:1;marker:none;paint-order:markers fill stroke;color-rendering:auto;image-rendering:auto;shape-rendering:auto;text-rendering:auto;enable-background:accumulate" />
    <path
       inkscape:connector-curvature="0"
       id="path4558-7-9-6-6"
       style="fill:#f0cb8e;stroke-width:0.36098519"
       d="m 1042.8164,-919.90959 c -10.2096,-10.0053 -31.9732,-24.8717 -52.64691,-35.962 -11.36971,-6.0991 -24.8108,-12.3935 -38.32235,-17.9462 -66.55018,-27.34901 -147.81633,-42.93311 -239.42224,-45.91321 -6.95757,-0.2264 -12.75225,-0.5113 -12.87704,-0.633 -0.23985,-0.234 -1.43283,-50.5501 -1.20454,-50.8035 0.37276,-0.4135 31.87642,1.9411 48.86938,3.6523 82.39874,8.2986 148.5796,25.832 197.76921,52.3953 42.04026,22.70241 73.38989,52.26541 97.08179,91.54921 2.7885,4.6237 3.0544,5.9167 0.7527,3.6611 z m 9.1628,25.69 c -0.4993,-0.1696 -4.0041,-1.5769 -7.7885,-3.1272 -33.9368,-13.9028 -80.31147,-27.1549 -126.2358,-36.0735 -33.062,-6.4207 -62.55446,-10.5175 -96.92738,-13.4637 -11.33893,-0.972 -55.8898,-2.4329 -65.17837,-2.1369 -28.84683,0.9179 -50.35525,3.0191 -68.40836,6.6832 -2.01615,0.4092 -3.79749,0.611 -3.95853,0.4484 -0.16106,-0.1625 -4.1955,-11.9196 -8.96543,-26.1268 -6.70514,-19.9713 -8.56066,-25.8914 -8.17906,-26.0965 0.27146,-0.1458 1.75633,-0.4019 3.29972,-0.5689 29.7322,-3.2173 65.21703,-2.4116 103.07615,2.34 81.6092,10.2427 167.60134,38.3012 250.82516,81.8425 12.4866,6.5329 28.6465,15.4716 29.2088,16.1566 0.2258,0.2751 0.3495,0.4847 0.2749,0.4659 -0.075,-0.019 -0.5441,-0.1729 -1.0434,-0.3426 z m -342.8599,3.9433 c -4.3455,-12.8881 -7.84469,-23.5885 -7.77599,-23.7788 0.14101,-0.3904 12.51893,-3.2199 19.76662,-4.5184 38.19762,-6.8435 87.59948,-7.0088 142.92815,-0.4782 45.74219,5.3992 97.18988,15.4419 148.99072,29.0837 19.7213,5.1936 43.7235,12.1999 43.7235,12.7631 0,0.4111 1.3518,0.4752 -11.1528,-0.5281 -77.25581,-6.1976 -168.63131,-6.6634 -235.94024,-1.2024 -32.03706,2.5991 -60.97218,6.3333 -85.5754,11.0434 -3.01226,0.5767 -5.83387,1.0485 -6.27025,1.0485 -0.72738,0 -1.45097,-1.9503 -8.69431,-23.4328 z m 420.9423,63.857 c -16.5252,-17.3766 -17.3153,-18.15 -18.5388,-18.15 -0.7029,0 -12.0704,1.245 -25.2611,2.7668 -13.1906,1.5218 -24.3363,2.767 -24.7682,2.767 -0.5682,0 -0.7379,-0.1673 -0.614,-0.6052 0.094,-0.333 5.7882,-9.7104 12.6533,-20.8388 6.8651,-11.1285 12.5927,-20.5147 12.7279,-20.8583 0.1669,-0.4241 -3.2454,-7.6659 -10.6246,-22.5479 -5.9787,-12.0577 -10.7581,-22.0942 -10.6208,-22.3033 0.1373,-0.2092 0.525,-0.2998 0.8616,-0.2016 0.3367,0.098 2.9269,0.6381 5.7561,1.1997 6.4082,1.2721 25.049,5.0396 35.2085,7.1162 4.2085,0.8602 8.0518,1.564 8.5408,1.564 0.6654,0 5.5716,-4.1123 19.4983,-16.3426 10.235,-8.9883 18.8242,-16.391 19.0869,-16.4504 0.6453,-0.1459 0.543,-0.918 3.2899,24.8379 1.3288,12.4601 2.555,22.9659 2.7248,23.3464 0.1975,0.4424 8.4627,4.93 22.9321,12.4513 12.4428,6.4678 22.6281,11.8485 22.6341,11.9571 0.01,0.1086 -5.9001,2.66 -13.1246,5.6699 -7.2245,3.0098 -17.7649,7.4025 -23.4233,9.7616 -5.6583,2.3592 -10.5533,4.5549 -10.8777,4.8793 -0.3977,0.398 -1.695,5.9932 -3.9857,17.1918 -5.2971,25.8945 -6.3771,30.9561 -6.6038,30.9474 -0.116,-0.01 -7.9782,-8.1757 -17.4717,-18.1583 z" />
    <path
       inkscape:connector-curvature="0"
       id="path4558-7-9-6-6-1"
       style="fill:#f0cb8e;stroke-width:0.36098522"
       d="m 1024.9995,-275.01724 c -10.2095,-10.0053 -31.97324,-24.8717 -52.64694,-35.962 -11.3697,-6.0991 -24.8108,-12.39352 -38.3223,-17.94622 -66.5502,-27.349 -147.81636,-42.9331 -239.42227,-45.9132 -6.95757,-0.2264 -12.75225,-0.5113 -12.87704,-0.633 -0.23985,-0.234 -1.43283,-50.5501 -1.20454,-50.8035 0.37276,-0.4135 31.87642,1.9411 48.86938,3.6523 82.39874,8.2986 148.57957,25.832 197.76917,52.3953 42.0403,22.7024 73.38994,52.26542 97.08184,91.54922 2.7885,4.6237 3.0544,5.9167 0.7527,3.6611 z m 9.1628,25.69 c -0.4992,-0.1696 -4.004,-1.5769 -7.7884,-3.1272 -33.93694,-13.9028 -80.31154,-27.1549 -126.23594,-36.0735 -33.062,-6.4207 -62.5544,-10.5175 -96.92735,-13.4637 -11.33893,-0.972 -55.8898,-2.4329 -65.17837,-2.1369 -28.84683,0.9179 -50.35525,3.0191 -68.40836,6.6832 -2.01615,0.4092 -3.79749,0.611 -3.95853,0.4484 -0.16106,-0.1625 -4.1955,-11.9196 -8.96543,-26.12682 -6.70514,-19.9713 -8.56066,-25.8914 -8.17906,-26.0965 0.27146,-0.1458 1.75633,-0.4019 3.29972,-0.5689 29.7322,-3.2173 65.21703,-2.4116 103.07615,2.34 81.60923,10.2427 167.60133,38.30122 250.82527,81.84252 12.4866,6.5329 28.6465,15.4716 29.2087,16.1566 0.2258,0.2751 0.3495,0.4847 0.2749,0.4659 -0.075,-0.019 -0.5441,-0.1729 -1.0433,-0.3426 z m -342.85991,3.9433 c -4.3455,-12.8881 -7.84469,-23.5885 -7.77599,-23.7788 0.14101,-0.3904 12.51893,-3.2199 19.76662,-4.5184 38.19762,-6.8435 87.59948,-7.0088 142.92814,-0.4782 45.7422,5.3992 97.1899,15.4419 148.9907,29.0837 19.72134,5.1936 43.72354,12.1999 43.72354,12.7631 0,0.4111 1.3518,0.4752 -11.1528,-0.5281 -77.25584,-6.1976 -168.63134,-6.6634 -235.94025,-1.2024 -32.03706,2.5991 -60.97218,6.3333 -85.5754,11.0434 -3.01226,0.5767 -5.83387,1.0485 -6.27025,1.0485 -0.72738,0 -1.45097,-1.9503 -8.69431,-23.4328 z m 420.94241,63.857 c -16.5253,-17.3766 -17.3154,-18.15 -18.5389,-18.15 -0.7029,0 -12.0704,1.245 -25.2611,2.7668 -13.1906,1.5218 -24.3363,2.767 -24.7682,2.767 -0.5681,0 -0.7379,-0.1673 -0.614,-0.6052 0.094,-0.333 5.7882,-9.7104 12.6533,-20.8388 6.8651,-11.1285 12.5927,-20.5147 12.7279,-20.8583 0.1669,-0.4241 -3.2454,-7.6659 -10.6246,-22.5479 -5.9787,-12.0577 -10.7581,-22.0942 -10.6208,-22.3033 0.1373,-0.2092 0.525,-0.2998 0.8617,-0.2016 0.3366,0.098 2.9268,0.6381 5.756,1.1997 6.4082,1.2721 25.049,5.0396 35.2085,7.1162 4.2085,0.8602 8.0519,1.564 8.5409,1.564 0.6653,0 5.5715,-4.1123 19.4982,-16.3426 10.235,-8.9883 18.8242,-16.391 19.087,-16.4504 0.6452,-0.1459 0.5429,-0.918 3.2898,24.8379 1.3288,12.4601 2.5551,22.9659 2.7248,23.3464 0.1975,0.4424 8.4627,4.93 22.9322,12.4513 12.4427,6.4678 22.6281,11.8485 22.634,11.9571 0.01,0.1086 -5.9001,2.66 -13.1246,5.6699 -7.2244,3.0098 -17.7649,7.4025 -23.4232,9.7616 -5.6584,2.3592 -10.5534,4.5549 -10.8778,4.8793 -0.3977,0.398 -1.6949,5.9932 -3.9857,17.1918 -5.2971,25.8945 -6.3771,30.9561 -6.6038,30.9474 -0.116,-0.01 -7.9782,-8.1757 -17.4716,-18.1583 z" />
    <path
       style="fill:#f0cb8e;stroke-width:0.36098525"
       d="m 1092.6589,-510.18332 c -10.2095,-10.0053 -31.9733,-24.8717 -52.647,-35.962 -11.3697,-6.09906 -24.8108,-12.39356 -38.3223,-17.94626 -66.5502,-27.349 -147.8163,-42.9331 -239.42224,-45.9132 -6.95757,-0.2264 -12.75225,-0.5113 -12.87704,-0.633 -0.23985,-0.234 -1.43283,-50.5501 -1.20454,-50.8035 0.37276,-0.4135 31.87642,1.9411 48.86938,3.6523 82.39874,8.2986 148.57954,25.832 197.76914,52.3953 42.0403,22.7024 73.39,52.2655 97.0819,91.54926 2.7885,4.6237 3.0544,5.9167 0.7527,3.6611 z"
       id="path5270"
       inkscape:connector-curvature="0" />
    <path
       style="fill:#f0cb8e;stroke-width:0.36098525"
       d="m 1110.8931,-486.00522 c -0.4992,-0.1696 -4.004,-1.5769 -7.7884,-3.1272 -33.937,-13.9028 -80.3116,-27.1549 -126.23597,-36.0735 -33.062,-6.4207 -62.5544,-10.5175 -96.9273,-13.4637 -11.3389,-0.972 -55.8898,-2.4329 -65.17839,-2.1369 -28.84683,0.9179 -50.35525,3.0191 -68.40836,6.6832 -2.01615,0.4092 -3.79749,0.611 -3.95853,0.4484 -0.16106,-0.1625 -4.1955,-11.9196 -8.96543,-26.12686 -6.70514,-19.9713 -8.56066,-25.8914 -8.17906,-26.0965 0.27146,-0.1458 1.75633,-0.4019 3.29972,-0.5689 29.7322,-3.2173 65.21703,-2.4116 103.07615,2.34 81.6092,10.2427 167.6013,38.30126 250.82527,81.84256 12.4866,6.5329 28.6465,15.4716 29.2087,16.1566 0.2258,0.2751 0.3495,0.4847 0.2749,0.4659 -0.075,-0.019 -0.5441,-0.1729 -1.0433,-0.3426 z"
       id="path5268"
       inkscape:connector-curvature="0" />
    <path
       style="fill:#f0cb8e;stroke-width:0.36098525"
       d="m 730.23557,-497.18097 c -4.3455,-12.8881 -7.84469,-23.5885 -7.77599,-23.7788 0.14101,-0.3904 12.51893,-3.2199 19.76662,-4.5184 38.19762,-6.8435 87.59951,-7.0088 142.92811,-0.4782 45.7422,5.3992 97.1899,15.4419 148.99069,29.0837 19.7214,5.1936 43.7236,12.1999 43.7236,12.7631 0,0.4111 1.3518,0.4752 -11.1528,-0.5281 -77.25589,-6.1976 -168.63139,-6.6634 -235.94029,-1.2024 -32.037,2.5991 -60.97216,6.3333 -85.57538,11.0434 -3.01226,0.5767 -5.83387,1.0485 -6.27025,1.0485 -0.72738,0 -1.45097,-1.9503 -8.69431,-23.4328 z"
       id="path5266"
       inkscape:connector-curvature="0" />
    <path
       style="fill:#f0cb8e;stroke-width:0.36098525"
       d="m 1054.4161,-623.82397 c -16.5253,-17.3766 -17.3154,-18.15 -18.5389,-18.15 -0.7029,0 -12.0704,1.245 -25.2611,2.7668 -13.1906,1.5218 -24.3363,2.767 -24.7682,2.767 -0.5681,0 -0.7379,-0.1673 -0.614,-0.6052 0.094,-0.333 5.7882,-9.7104 12.6533,-20.8388 6.8651,-11.1285 12.5927,-20.5147 12.7279,-20.8583 0.1669,-0.4241 -3.2454,-7.6659 -10.6246,-22.5479 -5.9787,-12.0577 -10.7581,-22.0942 -10.6208,-22.3033 0.1373,-0.2092 0.525,-0.2998 0.8617,-0.2016 0.3366,0.098 2.9268,0.6381 5.756,1.1997 6.4082,1.2721 25.049,5.0396 35.2085,7.1162 4.2085,0.8602 8.0519,1.564 8.5409,1.564 0.6653,0 5.5715,-4.1123 19.4982,-16.3426 10.235,-8.9883 18.8242,-16.391 19.087,-16.4504 0.6452,-0.1459 0.5429,-0.918 3.2898,24.8379 1.3288,12.4601 2.5551,22.9659 2.7248,23.3464 0.1975,0.4424 8.4627,4.93 22.9322,12.4513 12.4427,6.4678 22.6281,11.8485 22.634,11.9571 0.01,0.1086 -5.9001,2.66 -13.1246,5.6699 -7.2244,3.0098 -17.7649,7.4025 -23.4232,9.7616 -5.6584,2.3592 -10.5534,4.5549 -10.8778,4.8793 -0.3977,0.398 -1.6949,5.9932 -3.9857,17.1918 -5.2971,25.8945 -6.3771,30.9561 -6.6038,30.9474 -0.116,-0.01 -7.9782,-8.1757 -17.4716,-18.1583 z"
       id="path4558-7-9-6-6-1-5"
       inkscape:connector-curvature="0" />
    <path
       sodipodi:nodetypes="cccccccccccccccccccccccccsccsccccccccccccccccccccccccccccsccccccccccccccsccccccccccccccccccccccccccccccccccccccccccc"
       inkscape:connector-curvature="0"
       id="path4558-7-9-1-9-7-5-9"
       d="m 34.532799,-715.94969 -2.2299,5.2622 9.7059,0.1752 c 0.7715,0.1752 2.3277,0.3381 3.867999,0.3659 76.043802,5.0048 153.490902,15.418 222.979102,46.5299 50.2193,21.81519 92.9549,58.66278 119.6677,104.30578 0.1273,0.2174 0.1791,0.4469 0.3808,0.5628 0.205,0.1177 0.7173,0.062 0.7173,0.062 l 12.8121,-0.5018 c 0,0 0.5054,-0.035 0.661,-0.1959 0.1431,-0.1477 0.1806,-0.3407 0.1348,-0.5865 -0.2149,-1.1576 -7.3064,0.936 -10.3461,-2.2128 -1.8553,-1.9219 -2.9821,-2.4099 -5.5588,-5.2575 -2.3297,-2.7923 -1.4817,-5.4506 0.2547,-6.9257 2.3241,-1.9743 11.0674,-3.0729 12.7404,-2.7993 2.7524,0.45 4.7104,11.803 7.7044,12.6312 16.2876,4.5056 36.2016,6.7354 48.1371,8.6786 6.602,-4.8351 12.4709,-10.4672 18.6025,-15.8042 7.3282,-5.267 12.7882,-13.1898 21.2483,-16.8021 l 2.6608,-5.9387 -102.6826,12.9548 -19.991,-23.2027 -88.7667,-60.10018 -62.3047,-25.5276 c -65.3391,-23.5108 -190.395101,-25.6734 -190.395101,-25.6734 z m 0.1581,11.3373 c -3.4209,0.045 -12.487901,17.7633 -24.382001,45.8349 h 26.980301 c -1.4027,-28.2533 0.8226,-45.8803 -2.5983,-45.8349 z m -26.966802,51.9353 -7.80729954,18.42678 c 0,0 0.1887,1.0444 0.276,1.5312 H 6.8047974 c 17.2761006,-3.492 35.5923016,-2.8938 53.3202006,-2.9032 117.739702,3.5713 231.198102,43.4533 331.608702,99.7252 1.0028,0.4733 0.9725,-0.5573 0.818,-0.7369 l -7.6351,-13.9253 c -12.0674,-9.8293 -24.7412,-19.8119 -38.4778,-27.9166 -71.8918,-42.8442 -156.5406,-61.94429 -240.4406,-69.61848 -22.669502,-2.6328 -48.770402,-2.1454 -71.477301,-4.4183 0,-0.055 -7.9829,-0.1096 -7.9871,-0.1644 z m -3.2178996,26.05838 2.2019,31.7128 c 1.7567996,5.1795 3.9288006,11.7328 6.4771006,19.2407 l 7.7112,-2.3865 c -4.6947,-13.0111 -8.9697,-26.1517 -13.315501,-39.2694 -0.3166,-2.9234 -1.5585996,-6.4451 -3.0746996,-9.2976 z m 499.6718026,30.7454 -4.8183,8.9834 c 3.8286,15.7145 3.6722,32.2538 6.212,48.2364 12.649,7.1488 25.7341,13.5775 38.5522,20.44727 1.0793,0.79706 2.855,1.48968 4.4426,2.31823 l 5.6638,-3.09595 c -3.3596,-3.21079 -8.4735,-5.41035 -12.4747,-7.07445 l -27.9461,-17.9617 z m -394.9392,16.3494 c -21.436602,0.042 -42.905502,1.016 -64.264802,2.9879 -5.998399,-0.059 -16.581699,4.1294 -22.5004,4.1372 l -7.3164,2.5089 c 2.5138,7.3172 5.3473,15.3692 8.4631,23.8265 l 18.995701,-8.1489 c 13.785999,-3.7977 55.5328,-8.3693 84.107001,-8.7323 6.0779,-0.029 12.1562,0.034 18.2315,0.2052 82.8435,2.9087 164.4568,20.0015 243.4668,42.91519 0.2165,0.063 0.448,0.17166 0.6258,0.14367 0.1599,-0.0259 0.4325,-0.29406 0.4325,-0.29406 l 5.935,-4.9273 c 0,0 0.2667,-0.1851 0.2708,-0.5876 0,-0.4086 -0.5672,-0.4179 -1.2433,-0.525 -6.7436,-1.068 -13.3219,-4.9472 -19.8882,-7.0854 -80.1374,-29.308 -172.4232,-46.6079 -265.3151,-46.424 z m 297.0465,27.604 c -0.2762,0.056 -0.8491,1.27 -0.9886,1.8417 -1.1867,4.8621 9.2562,32.0735 8.4207,39.1537 -0.1183,1.0029 -13.3878,1.48855 -13.8333,1.79216 -0.4551,0.31019 -0.9455,0.18153 -1.6743,0.18343 -12.6868,0.033 -25.7665,-1.70267 -38.5718,-2.31148 -94.6884,-4.92069 -190.537,-5.53479 -284.163502,10.14151 -4.8516,-0.15923 -9.8216,2.71685 -14.6219,2.5745 l -15.5277,5.13974 c 0.2502,0.53322 0.4989,1.06773 0.7508,1.59938 l 327.485502,-1.13998 19.8406,21.80643 c 0.4702,0.84063 1.0146,1.57871 1.6196,2.22673 l 7.3985,-13.5215 c 3.7651,-7.18236 13.1853,-20.56911 21.3635,-34.60372 -4.7779,-10.6631 -12.3006,-24.3039 -17.3999,-34.8309 -0.025,-0.044 -0.059,-0.06 -0.098,-0.052 z m -366.404501,6.0699 -14.1325,5.503 c 5.0216,13.3564 10.7185,27.52883 17.0031,41.36804 l 12.241099,-4.05143 c -5.0558,-10.39437 -7.5587,-22.13701 -11.579699,-32.97521 -0.3851,-3.1825 -2.5921,-6.538 -3.532,-9.8444 z m 517.606101,32.03834 -13.5236,7.63315 c -7.5116,4.34708 -24.6469,9.3549 -40.2922,16.84391 -3.333,10.66889 -4.7787,21.67569 -7.1665,32.54789 -1.7085,4.14653 -1.1498,9.68833 -3.1585,13.76503 l 3.9745,4.39044 c 3.3552,-4.74824 4.761,-11.14271 5.0224,-16.54474 2.1968,-10.04937 3.7189,-20.23437 6.4461,-30.178 15.9952,-8.52148 36.1526,-10.97097 48.7986,-24.33597 0.2882,-1.49072 0.229,-2.86031 -0.1008,-4.12171 z m -104.6613,37.97237 c -14.0299,0.7498 -27.893,3.18412 -41.8651,4.37853 -2.2065,0.3787 -5.3065,1.04474 -7.8585,0.71882 l -2.8815,5.02658 c 5.1431,1.65801 11.595,0.71345 16.6579,-0.55501 11.1719,-1.22711 22.2996,-2.84494 33.5174,-3.67522 12.618,12.39969 24.0534,25.90743 37.0809,37.89534 2.0975,-0.41799 3.9244,-1.20891 5.5118,-2.27635 l -10.2843,-10.47263 c -6.2344,-5.99953 -17.4917,-19.00777 -29.8786,-31.04006 z"
       style="fill:none;fill-opacity:1;fill-rule:evenodd;stroke:#000000;stroke-width:0.36098519;stroke-opacity:1" />
    <path
       id="path872"
       style="fill:none;stroke:#000000;stroke-width:1"
       d="m 559.04685,-711.80008 h 6 v 6.21245 h -6 v 6.03245 h 6 v 6.21245 h -6 v 6.03244 h 6 v 6.21245 h -6 v 6.03245 h 6 v 6.21245 h -6 v 6.03245 h 6 v 6.21245 h -6 v 6.03245 h 6 v 6.21245 h -6 v 6.03245 h 6 v 6.21244 h -6 v 6.03245 h 6 v 6.21245 h -6 v 6.03245 h 6 v 6.21245 h -6 v 6.03245 h 6 v 6.21245 h -6 v 6.03245 h 6 v 6.21245 h -6 v 6.03245 h 6 v 6.21244 h -6 v 6.03245 h 6 v 6.21245 h -6 v 6.03245 h 6 v 6.21245 h -6 v 6.03245 h 6 v 6.21245 h -6 v 6.03245 h 6 v 6.21245 h -6 v 6.03245 h 6 v 6.21244 h -6 v 6.03245 h 6 v 6.21245 h -6 v 6.03245 h 6 v 6.21245 h -6 v 6.03245 h 6 v 6.21245 h -6 v 6.03245 h 6 v 6.21245 h -6 v 6.03245 h 6 v 6.21244 h -6 v 6.03245 h 6 v 6.21245 h -6 l -0.0351,6.11618 -5.97046,0.0837 v 6 h -6.1153 v -6 h -5.93531 v 6 h -6.1153 v -6 h -5.93531 v 6 h -6.1153 v -6 h -5.93531 v 6 h -6.1153 v -6 h -5.93531 v 6 h -6.11531 v -6 h -5.9353 v 6 h -6.11531 v -6 h -5.9353 v 6 h -6.11531 v -6 h -5.9353 v 6 h -6.11531 v -6 h -5.9353 v 6 h -6.11531 v -6 h -5.9353 v 6 h -6.11531 v -6 h -5.9353 v 6 h -6.11531 v -6 h -5.9353 v 6 h -6.11531 v -6 h -5.9353 v 6 h -6.11531 v -6 h -5.9353 v 6 H 390.268 v -6 h -5.9353 v 6 h -6.11531 v -6 h -5.9353 v 6 h -6.11531 v -6 h -5.9353 v 6 h -6.11531 v -6 h -5.9353 v 6 h -6.11531 v -6 h -5.9353 v 6 h -6.11531 v -6 h -5.93531 v 6 h -6.1153 v -6 h -5.93531 v 6 h -6.1153 v -6 h -5.93531 v 6 h -6.1153 v -6 h -5.93531 v 6 h -6.1153 v -6 h -5.93531 v 6 h -6.1153 v -6 h -5.93531 v 6 h -6.1153 v -6 h -5.93531 v 6 h -6.1153 v -6 h -5.93531 v 6 h -6.1153 v -6 h -5.93531 v 6 h -6.1153 v -6 h -5.93531 v 6 h -6.1153 v -6 h -5.93531 v 6 h -6.1153 v -6 h -5.93531 v 6 h -6.1153 v -6 h -5.93531 v 6 h -6.1153 v -6 h -5.93531 v 6 h -6.11531 v -6 h -5.9353 v 6 h -6.11531 v -6 h -5.9353 v 6 h -6.11531 v -6 h -5.9353 v 6 h -6.11531 v -6 h -5.9353 v 6 h -6.11531 v -6 h -5.9353 v 6 h -6.11531 v -6 h -5.935302 v 6 h -6.11531 v -6 h -5.9353 v 6 h -6.11531 v -6 h -5.9353 v 6 h -6.11531 v -6 h -5.9353 v 6 H 52.85091 v -6 h -5.935305 v 6 h -6.115306 v -6 h -5.935305 v 6 h -6.115305 v -6 h -5.935305 v 6 h -6.115305 v -6 h -5.935305 v 6 H 4.6484684 v -6 l -5.9704575,-0.0837 -0.035153,-6.11617 h -6 v -6.21245 h 6 v -6.03245 h -6 v -6.21244 h 6 v -6.03245 h -6 v -6.21245 h 6 v -6.03245 h -6 v -6.21245 h 6 v -6.03245 h -6 v -6.21245 h 6 v -6.03245 h -6 v -6.21245 h 6 v -6.03245 h -6 v -6.21244 h 6 v -6.03245 h -6 v -6.21245 h 6 v -6.03245 h -6 v -6.21245 h 6 v -6.03245 h -6 v -6.21245 h 6 v -6.03245 h -6 v -6.21245 h 6 v -6.03245 h -6 v -6.21244 h 6 v -6.03245 h -6 v -6.21245 h 6 v -6.03245 h -6 v -6.21245 h 6 v -6.03245 h -6 v -6.21245 h 6 v -6.03245 h -6 v -6.21245 h 6 v -6.03245 h -6 v -6.21244 h 6 v -6.03245 h -6 v -6.21245 h 6 v -6.03245 h -6 v -6.21245 h 6 v -6.03245 h -6 v -6.21245 h 6 v -6.03245 h -6 v -6.21245 h 6 v -6.03244 h -6 v -6.21245 h 6 v -6.03245 h -6 v -6.21245 h 6 l 0.035153,-6.11618 5.9704575,-0.0837 v -6 h 6.1153056 v 6 h 5.935305 v -6 h 6.115305 v 6 h 5.935305 v -6 h 6.115305 v 6 h 5.935305 v -6 h 6.115306 v 6 h 5.935305 v -6 h 6.115308 v 6 h 5.9353 v -6 h 6.11531 v 6 h 5.9353 v -6 h 6.11531 v 6 h 5.9353 v -6 h 6.11531 v 6 h 5.935302 v -6 h 6.11531 v 6 h 5.9353 v -6 h 6.11531 v 6 h 5.9353 v -6 h 6.11531 v 6 h 5.9353 v -6 h 6.11531 v 6 h 5.9353 v -6 h 6.11531 v 6 h 5.9353 v -6 h 6.11531 v 6 h 5.93531 v -6 h 6.1153 v 6 h 5.93531 v -6 h 6.1153 v 6 h 5.93531 v -6 h 6.1153 v 6 h 5.93531 v -6 h 6.1153 v 6 h 5.93531 v -6 h 6.1153 v 6 h 5.93531 v -6 h 6.1153 v 6 h 5.93531 v -6 h 6.1153 v 6 h 5.93531 v -6 h 6.1153 v 6 h 5.93531 v -6 h 6.1153 v 6 h 5.93531 v -6 h 6.1153 v 6 h 5.93531 v -6 h 6.1153 v 6 h 5.93531 v -6 h 6.1153 v 6 h 5.93531 v -6 h 6.1153 v 6 h 5.93531 v -6 h 6.11531 v 6 h 5.9353 v -6 h 6.11531 v 6 h 5.9353 v -6 h 6.11531 v 6 h 5.9353 v -6 h 6.11531 v 6 h 5.9353 v -6 h 6.11531 v 6 h 5.9353 v -6 h 6.11531 v 6 h 5.9353 v -6 h 6.11531 v 6 h 5.9353 v -6 h 6.11531 v 6 h 5.9353 v -6 h 6.11531 v 6 h 5.9353 v -6 h 6.11531 v 6 h 5.9353 v -6 h 6.11531 v 6 h 5.9353 v -6 h 6.11531 v 6 h 5.9353 v -6 h 6.11531 v 6 h 5.9353 v -6 h 6.11531 v 6 h 5.9353 v -6 h 6.11531 v 6 h 5.93531 v -6 h 6.1153 v 6 h 5.93531 v -6 h 6.1153 v 6 h 5.93531 v -6 h 6.1153 v 6 h 5.93531 v -6 h 6.1153 v 6 l 5.97046,0.0837 z"
       inkscape:connector-curvature="0"
       sodipodi:nodetypes="ccccccccccccccccccccccccccccccccccccccccccccccccccccccccccccccccccccccccccccccccccccccccccccccccccccccccccccccccccccccccccccccccccccccccccccccccccccccccccccccccccccccccccccccccccccccccccccccccccccccccccccccccccccccccccccccccccccccccccccccccccccccccccccccccccccccccccccccccccccccccccccccccccccccccccccccccccccccccccccccccccccccccccccccccccccccccccccccccccccccccccccccccccccccccccccccccccccccccccccccccccccccccccccccccccccccccccccccccccccccccccccccccccccccccccccccccccccccccccccccccccccccccccccccccccccccccccccccccccccccccccccccccccccccccccccccccccccccccccccc" />
    <path
       id="path880"
       style="fill:none;stroke:#000000;stroke-width:1"
       d="m 586.41012,-724.26725 c -0.13124,99.89342 0,200.10684 0,300 l -18.045,-1e-5 -1e-5,-12.28984 h 6 v -6.03245 h -6 v -6.21245 h 6 v -6.03244 h -6 v -6.21245 h 6 v -6.03245 h -6 v -6.21245 h 6 v -6.03245 h -6 v -6.21245 h 6 v -6.03245 h -6 v -6.21245 h 6 v -6.03245 h -6 v -6.21245 h 6 v -6.03244 h -6 v -6.21245 h 6 v -6.03245 h -6 v -6.21245 h 6 v -6.03245 h -6 v -6.21245 h 6 v -6.03245 h -6 v -6.21245 h 6 v -6.03245 h -6 v -6.21245 h 6 v -6.03244 h -6 v -6.21245 h 6 v -6.03245 h -6 v -6.21245 h 6 v -6.03245 h -6 v -6.21245 h 6 v -6.03245 h -6 v -6.21245 h 6 v -6.03245 h -6 v -6.21245 h 6 v -6.03244 h -6 v -6.21245 h 6 v -6.03245 h -6 v -6.21245 h 6 v -6.03245 h -6 v -6.21245 h 6 v -6.03245 h -6 v -6.21245 h 6 v -6.03245 h -6 v -6.21244 h 6 v -6.03245 h -6 v -6.21245 h 6 v -6.03245 h -6 l 1e-5,-12.28996 z"
       inkscape:connector-curvature="0"
       sodipodi:nodetypes="ccccccccccccccccccccccccccccccccccccccccccccccccccccccccccccccccccccccccccccccccccccccccccccccccc" />
    <path
       id="path896"
       style="fill:none;stroke:#000000;stroke-width:1"
       d="m 559.0667,-727.05097 h -6.11531 v -6 h -5.9353 v 6 h -6.11531 v -6 h -5.9353 v 6 h -6.11531 v -6 h -5.9353 v 6 h -6.11531 v -6 h -5.9353 v 6 h -6.11531 v -6 h -5.93531 v 6 h -6.1153 v -6 h -5.93531 v 6 h -6.1153 v -6 h -5.93531 v 6 h -6.1153 v -6 h -5.93531 v 6 h -6.1153 v -6 h -5.93531 v 6 h -6.1153 v -6 h -5.93531 v 6 h -6.1153 v -6 h -5.93531 v 6 h -6.1153 v -6 h -5.93531 v 6 h -6.1153 v -6 h -5.93531 v 6 h -6.1153 v -6 h -5.93531 v 6 h -6.1153 v -6 h -5.93531 v 6 h -6.1153 v -6 h -5.93531 v 6 h -6.1153 v -6 h -5.93531 v 6 h -6.1153 v -6 h -5.93531 v 6 h -6.1153 v -6 h -5.93531 v 6 h -6.11531 v -6 h -5.9353 v 6 h -6.11531 v -6 h -5.9353 v 6 h -6.11531 v -6 h -5.9353 v 6 h -6.11531 v -6 h -5.9353 v 6 h -6.11531 v -6 h -5.9353 v 6 h -6.11531 v -6 h -5.9353 v 6 h -6.11531 v -6 h -5.9353 v 6 h -6.11531 v -6 h -5.9353 v 6 h -6.11531 v -6 h -5.9353 v 6 h -6.11531 v -6 h -5.9353 v 6 h -6.11531 v -6 h -5.9353 v 6 h -6.11531 v -6 h -5.9353 v 6 h -6.11531 v -6 h -5.9353 v 6 h -6.11531 v -6 h -5.93531 v 6 h -6.1153 v -6 h -5.93531 v 6 h -6.1153 v -6 h -5.93531 v 6 h -6.1153 v -6 h -5.93531 v 6 h -6.1153 v -6 h -5.93531 v 6 h -6.1153 v -6 h -5.93531 v 6 h -6.115302 v -6 h -5.93531 v 6 h -6.1153 v -6 h -5.93531 v 6 h -6.1153 v -6 h -5.93531 v 6 h -6.1153 v -6 H 52.94106 v 6 h -6.115305 v -6 h -5.935306 v 6 h -6.115305 v -6 h -5.935305 v 6 h -6.115305 v -6 h -5.935305 v 6 h -6.115455 v -6 H 4.7384684 v 6 h -6.115305 l 0.0049,-17.98901 H 559.06155 Z"
       inkscape:connector-curvature="0"
       sodipodi:nodetypes="ccccccccccccccccccccccccccccccccccccccccccccccccccccccccccccccccccccccccccccccccccccccccccccccccccccccccccccccccccccccccccccccccccccccccccccccccccccccccccccccccccccccccccccccccccccccccccccc" />
    <path
       id="path880-5"
       style="fill:none;stroke:#000000;stroke-width:1"
       d="m -28.820986,-723.27673 c 0.13124,99.89342 0,200.10684 0,300.00001 l 18.045168,-3e-5 10e-6,-12.28984 h -6 v -6.03245 h 6 v -6.21244 h -6 v -6.03245 h 6 v -6.21244 h -6 v -6.03245 h 6 v -6.21245 h -6 v -6.03245 h 6 v -6.21245 h -6 v -6.03245 h 6 v -6.21245 h -6 v -6.03245 h 6 v -6.21245 h -6 v -6.03244 h 6 v -6.21245 h -6 v -6.03245 h 6 v -6.21245 h -6 v -6.03245 h 6 v -6.21245 h -6 v -6.03245 h 6 v -6.21245 h -6 v -6.03245 h 6 v -6.21245 h -6 v -6.03244 h 6 v -6.21245 h -6 v -6.03245 h 6 v -6.21245 h -6 v -6.03245 h 6 v -6.21245 h -6 v -6.03245 h 6 v -6.21245 h -6 v -6.03245 h 6 v -6.21245 h -6 v -6.03243 h 6 v -6.21245 h -6 v -6.03245 h 6 v -6.21245 h -6 v -6.03246 h 6 v -6.21244 h -6 v -6.03245 h 6 v -6.21245 h -6 v -6.03245 h 6 v -6.21245 h -6 v -6.03245 h 6 v -6.21245 h -6 v -6.03245 h 6 l -10e-6,-12.28995 z"
       inkscape:connector-curvature="0"
       sodipodi:nodetypes="ccccccccccccccccccccccccccccccccccccccccccccccccccccccccccccccccccccccccccccccccccccccccccccccccc" />
    <path
       id="path896-1"
       style="fill:none;stroke:#000000;stroke-width:1"
       d="m 559.30903,-420.85797 h -6.11531 v 6 h -5.9353 v -6 h -6.11531 v 6 h -5.93529 v -6 h -6.11532 v 6 h -5.93532 v -6 h -6.11528 v 6 h -5.93532 v -6 h -6.11529 v 6 h -5.93532 v -6 h -6.11531 v 6 h -5.9353 v -6 h -6.11531 v 6 h -5.93529 v -6 h -6.11532 v 6 h -5.93532 v -6 h -6.11528 v 6 h -5.93532 v -6 h -6.11529 v 6 h -5.93532 v -6 h -6.11529 v 6 h -5.93532 v -6 h -6.11528 v 6 h -5.93532 v -6 h -6.11532 v 6 h -5.93529 v -6 h -6.11531 v 6 h -5.9353 v -6 h -6.11531 v 6 h -5.93529 v -6 h -6.11532 v 6 h -5.93532 v -6 h -6.11528 v 6 h -5.93532 v -6 h -6.11529 v 6 h -5.93532 v -6 h -6.11529 v 6 h -5.93532 v -6 h -6.11531 v 6 h -5.93529 v -6 h -6.11532 v 6 h -5.93529 v -6 h -6.11531 v 6 h -5.9353 v -6 h -6.11531 v 6 h -5.93532 v -6 h -6.11529 v 6 h -5.93532 v -6 h -6.11528 v 6 h -5.93532 v -6 h -6.11531 v 6 h -5.9353 v -6 h -6.11531 v 6 h -5.9353 v -6 h -6.11531 v 6 h -5.9353 v -6 h -6.11531 v 6 h -5.9353 v -6 h -6.11531 v 6 h -5.9353 v -6 h -6.11531 v 6 h -5.9353 v -6 h -6.11531 v 6 h -5.9353 v -6 h -6.11531 v 6 h -5.93531 v -6 h -6.1153 v 6 h -5.93531 v -6 h -6.1153 v 6 h -5.93531 v -6 h -6.1153 v 6 h -5.93531 v -6 h -6.1153 v 6 h -5.93531 v -6 h -6.1153 v 6 h -5.93531 v -6 h -6.115302 v 6 h -5.93531 v -6 h -6.11529 v 6 h -5.93531 v -6 h -6.11531 v 6 h -5.9353 v -6 h -6.11531 v 6 h -5.935302 v -6 h -6.11531 v 6 h -5.93531 v -6 h -6.1153 v 6 h -5.9353 v -6 h -6.11531 v 6 h -5.93531 v -6 h -6.11545 v 6 H 4.9807864 v -6 h -6.1153 l 0.005,17.98901 H 559.30397 Z"
       inkscape:connector-curvature="0"
       sodipodi:nodetypes="ccccccccccccccccccccccccccccccccccccccccccccccccccccccccccccccccccccccccccccccccccccccccccccccccccccccccccccccccccccccccccccccccccccccccccccccccccccccccccccccccccccccccccccccccccccccccccccc" />
  </g>
  <g
     inkscape:label="newlayer"
     inkscape:groupmode="layer"
     id="g89" />
  <g
     id="g213"
     inkscape:groupmode="layer"
     inkscape:label="newlayer" />
  <g
     inkscape:label="newlayer"
     inkscape:groupmode="layer"
     id="g329" />
  <g
     id="g633"
     inkscape:groupmode="layer"
     inkscape:label="newlayer" />
  <g
     inkscape:label="newlayer"
     inkscape:groupmode="layer"
     id="g773" />
  <g
     id="g904"
     inkscape:groupmode="layer"
     inkscape:label="newlayer" />
</svg>
